<?xml version="1.0" standalone="no"?>
<svg version="1.1" id="Layer_1" xmlns="http://www.w3.org/2000/svg" xmlns:xlink="http://www.w3.org/1999/xlink" x="0px" y="0px" viewBox="0 0 595.276 595.276" enable-background="new 0 0 595.276 595.276" xml:space="preserve">
<path id="color_x5F_8" fill="#633125" d="M100.577,345.093h8.579v9.542c-1.147,0.079-2.311,0.123-3.49,0.127L100.577,345.093z
	 M89.187,351.234v-6.142h-8.579l1.389,2.639C84.209,348.661,86.648,349.815,89.187,351.234z M132.318,348.488
	c4.017-1.852,6.393-3.395,6.393-3.395h-8.18L132.318,348.488z M124.032,351.714c1.838-0.588,3.542-1.217,5.094-1.845v-4.776h-8.579
	L124.032,351.714z M115.197,353.9c0.167-0.029,0.321-0.071,0.487-0.101c1.178-0.216,2.339-0.45,3.456-0.719v-7.987h-8.579
	L115.197,353.9z M95.171,353.791c1.3,0.24,2.635,0.443,4.001,0.6v-9.299h-8.579L95.171,353.791z M72.407,279.625
	c0,0-1.543,2.376-3.395,6.393l3.395,1.787V279.625z M72.407,289.211h-4.776c-0.628,1.552-1.257,3.256-1.845,5.094l6.621,3.485
	V289.211z M72.407,329.15h-6.404c1.388,2.47,2.529,4.856,3.452,7.025l2.952,1.553V329.15z M72.407,319.165h-9.299
	c0.158,1.365,0.361,2.7,0.6,4.001l8.698,4.578V319.165z M72.407,344.491v-5.357h-1.768c0.835,2.225,1.405,4.073,1.764,5.356
	C72.405,344.49,72.406,344.491,72.407,344.491z M72.407,299.196H64.42c-0.261,1.087-0.785,3.744-0.82,3.944l8.807,4.635V299.196z
	 M72.407,309.18h-9.542c-0.078,1.147-0.123,2.311-0.127,3.49l9.67,5.089V309.18z M66.992,340.527l-6.066-6.066l-3.855,3.855
	c2.918,0.91,5.523,1.929,7.713,2.896L66.992,340.527z M46.805,320.341l-6.747,6.747c0.755,0.867,1.547,1.721,2.378,2.558
	l10.436-3.239L46.805,320.341z M45.811,319.346l-6.066-6.066l-5.648,5.648c0.685,1.118,1.418,2.244,2.209,3.368L45.811,319.346z
	 M59.931,333.467l-6.066-6.066l-6.575,6.575c1.077,0.854,2.164,1.654,3.253,2.404L59.931,333.467z M67.986,341.521l-0.804,0.803
	c1.389,0.676,2.522,1.283,3.363,1.756L67.986,341.521z M28.026,306.363l3.664-1.137l-5.784-5.784
	C25.906,299.442,26.496,302.213,28.026,306.363z M38.751,312.286l-6.066-6.066l-3.377,3.377c0.653,1.541,1.414,3.191,2.297,4.907
	L38.751,312.286z M97.633,333.976l-6.575-6.575l-6.066,6.066l9.388,2.913C95.468,335.63,96.556,334.83,97.633,333.976z
	 M104.865,327.088l-6.747-6.747l-6.066,6.066l10.436,3.239C103.318,328.809,104.109,327.955,104.865,327.088z M83.766,342.338
	c1.71-0.773,3.525-1.674,5.392-2.716l-5.161-5.161l-6.066,6.066L83.766,342.338z M105.178,313.28l-6.066,6.066l9.505,2.95
	c0.791-1.125,1.524-2.251,2.209-3.368L105.178,313.28z M77.604,342.188l-0.667-0.667l-3.289,3.289
	c0.564,0.154,1.259,0.355,2.069,0.609c1.001,0.314,2.184,0.715,3.486,1.201v-0.088v-1.44h-2.478c0.846-0.281,1.78-0.608,2.792-0.991
	L77.604,342.188z M115.615,309.597l-3.377-3.377l-6.066,6.066l7.146,2.218C114.201,312.789,114.962,311.138,115.615,309.597z
	 M119.016,299.442l-5.784,5.784l3.664,1.137C118.427,302.213,119.016,299.442,119.016,299.442z M53.91,345.093h-8.579v9.299
	c1.365-0.158,2.7-0.361,4.001-0.6L53.91,345.093z M12.184,348.488l1.787-3.395h-8.18C5.791,345.093,8.167,346.635,12.184,348.488z
	 M29.305,353.9l4.635-8.807h-8.579v7.987c1.194,0.287,2.429,0.542,3.692,0.768C29.14,353.863,29.219,353.885,29.305,353.9z
	 M43.925,345.093h-8.579v9.542c1.147,0.079,2.311,0.123,3.49,0.127L43.925,345.093z M15.377,349.868
	c1.552,0.628,3.256,1.257,5.094,1.845l3.485-6.621h-8.579V349.868z M63.894,345.093h-8.579v6.374
	c2.482-1.41,4.881-2.567,7.071-3.509L63.894,345.093z M65.3,345.093v1.442v0.243c1.989-0.756,3.694-1.306,4.984-1.685H65.3z
	 M25.906,391.397c0,0,0.692-0.147,1.902-0.486c1.212-0.339,2.943-0.869,5.019-1.635l-1.137-3.664L25.906,391.397z M46.805,370.498
	l6.747,6.747c0.866-0.755,1.721-1.547,2.558-2.377l-3.239-10.436L46.805,370.498z M32.685,384.618l3.377,3.377
	c1.541-0.653,3.191-1.414,4.907-2.297l-2.218-7.146L32.685,384.618z M39.745,377.558l5.648,5.648
	c1.118-0.685,2.244-1.418,3.368-2.209l-2.95-9.505L39.745,377.558z M60.925,356.378l5.161,5.161
	c1.042-1.867,1.944-3.682,2.716-5.392l-1.811-5.835L60.925,356.378z M59.931,357.372l-6.066,6.066l6.575,6.575
	c0.854-1.077,1.654-2.164,2.404-3.253L59.931,357.372z M112.095,389.276c2.077,0.766,3.808,1.296,5.019,1.635
	c1.21,0.338,1.902,0.486,1.902,0.486l-5.784-5.784L112.095,389.276z M84.991,357.372l-2.914,9.388
	c0.75,1.089,1.55,2.176,2.404,3.253l6.575-6.575L84.991,357.372z M92.051,364.432l-3.239,10.436
	c0.837,0.831,1.691,1.622,2.558,2.377l6.747-6.747L92.051,364.432z M99.112,371.492l-2.95,9.505c1.125,0.791,2.25,1.524,3.368,2.209
	l5.648-5.648L99.112,371.492z M83.997,356.378l-6.066-6.066l-1.811,5.835c0.524,1.159,1.13,2.377,1.775,3.616
	c0.307,0.589,0.605,1.174,0.941,1.776L83.997,356.378z M106.172,378.552l-2.218,7.146c1.715,0.884,3.366,1.644,4.907,2.297
	l3.377-3.377L106.172,378.552z M76.937,349.317l-4.915-4.915c0,0,0.015,0.069,0.045,0.2c0.027,0.118,0.07,0.294,0.124,0.511
	l-4.205,4.205l0.031,0.031l2.124,2.124l0.425,0.425c0.267-0.706,0.5-1.36,0.716-1.987c0.492-1.425,0.865-2.645,1.121-3.561
	c0.021-0.005,0.035-0.008,0.058-0.014c0.023,0.006,0.037,0.009,0.058,0.014c0.191,0.681,1.415,4.432,1.837,5.549L76.937,349.317z
	 M255.927,364.437c0.938-0.003,1.865-0.039,2.777-0.101v-7.595h-6.828L255.927,364.437z M242.811,361.629v-4.888h-6.828l1.105,2.1
	C238.848,359.581,240.79,360.5,242.811,361.629z M277.14,359.443c3.197-1.474,5.089-2.702,5.089-2.702h-6.511L277.14,359.443z
	 M270.544,362.011c1.463-0.468,2.819-0.969,4.054-1.469v-3.801h-6.828L270.544,362.011z M263.513,363.751
	c0.133-0.023,0.256-0.056,0.388-0.081c0.938-0.172,1.862-0.358,2.751-0.572v-6.357h-6.828L263.513,363.751z M247.573,363.664
	c1.035,0.191,2.098,0.352,3.184,0.478v-7.401h-6.828L247.573,363.664z M229.455,304.634c0,0-1.228,1.892-2.702,5.089l2.702,1.422
	V304.634z M229.455,312.264h-3.801c-0.5,1.235-1.001,2.592-1.469,4.055l5.27,2.774V312.264z M229.455,344.052h-5.097
	c1.104,1.966,2.013,3.865,2.748,5.592l2.349,1.236V344.052z M229.455,336.105h-7.401c0.126,1.087,0.287,2.149,0.478,3.184
	l6.923,3.644V336.105z M229.455,356.262v-4.263h-1.407c0.664,1.771,1.118,3.242,1.404,4.263
	C229.453,356.262,229.454,356.262,229.455,356.262z M229.455,320.211h-6.357c-0.208,0.865-0.388,1.765-0.557,2.676
	c-0.029,0.157-0.068,0.304-0.096,0.462l7.01,3.689V320.211z M229.455,328.158h-7.595c-0.063,0.913-0.098,1.839-0.101,2.777
	l7.696,4.051V328.158z M225.145,353.107l-4.828-4.828l-3.068,3.068c2.323,0.725,4.396,1.535,6.139,2.305L225.145,353.107z
	 M209.078,337.04l-5.37,5.37c0.601,0.69,1.231,1.37,1.892,2.036l8.306-2.578L209.078,337.04z M208.286,336.249l-4.828-4.828
	l-4.161,4.161l-0.335,0.335c0.545,0.89,1.129,1.786,1.758,2.681L208.286,336.249z M219.525,347.488l-4.828-4.828l-5.233,5.233
	c0.857,0.68,1.723,1.317,2.59,1.914L219.525,347.488z M225.936,353.898l-0.64,0.64c1.106,0.538,2.008,1.021,2.677,1.398
	L225.936,353.898z M197.048,325.01l-4.604-4.604c0,0,0.469,2.206,1.688,5.509L197.048,325.01z M202.667,330.63l-4.828-4.828
	l-2.688,2.688c0.52,1.227,1.125,2.54,1.828,3.905L202.667,330.63z M249.533,347.893l-5.233-5.233l-4.828,4.828l7.472,2.319
	C247.81,349.21,248.675,348.573,249.533,347.893z M255.289,342.411l-5.37-5.37l-4.828,4.828l8.306,2.578
	C254.058,343.78,254.688,343.1,255.289,342.411z M238.496,354.549c1.361-0.615,2.806-1.332,4.291-2.162l-4.108-4.108l-4.828,4.828
	L238.496,354.549z M259.962,335.845l-4.424-4.424l-4.828,4.828l7.565,2.348c0.629-0.895,1.213-1.791,1.758-2.681L259.962,335.845z
	 M233.591,354.429l-0.531-0.531l-2.618,2.618c0.449,0.123,1.003,0.282,1.647,0.484c0.797,0.25,1.738,0.569,2.775,0.956v-0.071
	v-1.145h-1.986c0.683-0.226,1.416-0.479,2.236-0.789L233.591,354.429z M262.017,332.395c0.703-1.365,1.308-2.679,1.828-3.905
	l-2.688-2.688l-4.828,4.828L262.017,332.395z M266.552,320.407l-4.604,4.604l2.916,0.905
	C266.083,322.612,266.552,320.407,266.552,320.407z M214.733,356.741h-6.828v7.401c1.087-0.126,2.149-0.287,3.184-0.478
	L214.733,356.741z M181.522,359.443l1.422-2.702h-6.511C176.434,356.741,178.325,357.969,181.522,359.443z M195.149,363.751
	l3.689-7.01h-6.828v6.357c0.95,0.228,1.933,0.431,2.939,0.611C195.018,363.721,195.081,363.739,195.149,363.751z M206.786,356.741
	h-6.828v7.595c0.913,0.063,1.839,0.098,2.777,0.101L206.786,356.741z M184.064,360.542c1.235,0.5,2.592,1,4.054,1.469l2.774-5.27
	h-6.828V360.542z M222.68,356.741h-6.828v5.073c1.975-1.123,3.885-2.043,5.628-2.793L222.68,356.741z M223.798,356.741v1.341
	c1.583-0.602,2.94-1.04,3.967-1.341H223.798z M197.048,388.992l-4.604,4.604c0,0,2.206-0.469,5.509-1.687L197.048,388.992z
	 M209.078,376.962l5.37,5.37c0.69-0.601,1.37-1.231,2.036-1.892l-2.578-8.306L209.078,376.962z M197.839,388.201l2.688,2.688
	c1.227-0.52,2.54-1.125,3.906-1.828l-1.765-5.688L197.839,388.201z M203.458,382.581l4.495,4.495
	c0.89-0.545,1.786-1.129,2.681-1.758l-2.348-7.565L203.458,382.581z M220.316,365.723l4.108,4.108
	c0.83-1.486,1.547-2.931,2.162-4.291l-1.441-4.645L220.316,365.723z M219.737,367.196l-0.212-0.682l-4.828,4.828l5.233,5.233
	c0.68-0.857,1.317-1.723,1.914-2.589L219.737,367.196z M261.043,391.908c3.303,1.218,5.509,1.687,5.509,1.687l-4.604-4.604
	L261.043,391.908z M239.471,366.514l-2.319,7.472c0.597,0.867,1.234,1.732,1.914,2.589l5.233-5.233L239.471,366.514z
	 M245.09,372.134l-2.578,8.306c0.666,0.661,1.346,1.291,2.036,1.892l5.37-5.37L245.09,372.134z M250.71,377.753l-2.348,7.565
	c0.895,0.629,1.791,1.213,2.681,1.758l4.495-4.495L250.71,377.753z M238.68,365.723l-4.828-4.828l-1.441,4.645
	c0.415,0.918,0.895,1.883,1.406,2.865c0.246,0.473,0.486,0.943,0.755,1.426L238.68,365.723z M256.329,383.372l-1.765,5.688
	c1.365,0.703,2.679,1.309,3.905,1.828l2.688-2.688L256.329,383.372z M233.06,360.103l-3.912-3.912c0,0,0.012,0.055,0.036,0.159
	c0.022,0.094,0.055,0.234,0.098,0.406l-3.347,3.346l0.028,0.028l2.025,2.026c0.209-0.552,1.257-3.682,1.462-4.416
	c0.017-0.004,0.028-0.007,0.046-0.011c0.018,0.004,0.03,0.007,0.047,0.011c0.153,0.548,1.13,3.537,1.462,4.416L233.06,360.103z
	 M462.56,266.56c-0.531-0.118-2.752-3.872-6.465-3.971c1.222,0.95,2.312,2.017,3.246,3.252c0.637,0.841,1.567,3.522,2.687,3.791
	c0.797,0.191,2.906-1.447,3.629-1.741c1.651-0.672,3.386-1.055,5.147-1.3C470.568,266.471,467.693,265.583,462.56,266.56z
	 M391.131,269.487c1.485,0.436,2.89,1.031,4.211,1.837c0.9,0.55,2.748,2.704,3.888,2.544c0.812-0.114,2.174-2.41,2.739-2.949
	c1.29-1.23,2.765-2.221,4.314-3.094c-0.263-0.025-3.264,0.202-7.682,2.99C398.063,270.9,394.623,268.22,391.131,269.487z
	 M167.56,177.712v-0.195v-3.269h-5.624c1.921-0.637,4.042-1.382,6.338-2.25l-4.343-4.343l-1.514-1.514l-7.467,7.467
	c1.28,0.35,2.859,0.805,4.697,1.381C161.924,175.704,164.598,176.606,167.56,177.712z M235.557,195.91v-21.661h-19.474
	l11.553,21.951C230.312,196.189,232.954,196.088,235.557,195.91z M173.898,180.227c5.018,2.111,10.568,4.736,16.328,7.956v-13.935
	h-19.475L173.898,180.227z M288.136,181.955c1.978-0.912,3.768-1.787,5.379-2.605c5.814-2.951,9.134-5.102,9.134-5.102H284.08
	L288.136,181.955z M280.889,185.089v-10.841h-19.474l7.911,15.03C273.497,187.943,277.366,186.515,280.889,185.089z
	 M249.271,194.241c0.381-0.066,0.749-0.147,1.127-0.216c2.673-0.49,5.29-1.036,7.825-1.645v-18.131h-19.474L249.271,194.241z
	 M203.81,193.994c2.952,0.544,5.982,1.005,9.082,1.363v-21.109h-19.474L203.81,193.994z M152.134,44.203V25.633
	c0,0-3.502,5.395-7.707,14.513L152.134,44.203z M152.134,47.394h-10.841c-1.426,3.522-2.854,7.392-4.189,11.564l15.03,7.911V47.394z
	 M152.134,138.057h-14.538c3.15,5.607,5.741,11.023,7.837,15.948l6.701,3.527V138.057z M152.134,115.391h-21.109
	c0.358,3.1,0.818,6.13,1.363,9.082l19.746,10.393V115.391z M152.134,172.882v-12.16h-4.013c1.895,5.05,3.189,9.245,4.004,12.158
	C152.128,172.881,152.131,172.882,152.134,172.882z M152.134,89.534V70.06h-18.131c-0.592,2.466-1.124,5.012-1.604,7.609
	c-0.083,0.45-0.178,0.889-0.257,1.343L152.134,89.534z M152.134,112.2V92.726h-21.661c-0.178,2.603-0.28,5.245-0.289,7.922
	L152.134,112.2z M134.829,165.44l5.012-1.556l-13.771-13.77l-8.751,8.752C123.943,160.932,129.856,163.244,134.829,165.44z
	 M78.699,133.377c1.715,1.967,3.511,3.907,5.397,5.806l23.691-7.352l-13.771-13.77L78.699,133.377z M65.169,114.853
	c1.555,2.538,3.219,5.093,5.014,7.646l21.577-6.696l-13.77-13.771L65.169,114.853z M102.503,154.471l21.311-6.614l-13.771-13.77
	l-14.926,14.926C97.562,150.951,100.03,152.768,102.503,154.471z M142.098,166.141l-1.824,1.824
	c3.153,1.534,5.725,2.911,7.635,3.986L142.098,166.141z M59.706,83.749L46.575,70.618c0,0,1.338,6.291,4.813,15.712L59.706,83.749z
	 M59.511,104.81l15.642-4.854l0.579-0.18l-13.77-13.771l-7.666,7.666C55.779,97.17,57.505,100.916,59.511,104.81z M209.398,149.013
	l-14.926-14.926l-13.771,13.77l21.311,6.614C204.485,152.768,206.953,150.951,209.398,149.013z M225.816,133.377l-15.317-15.317
	l-13.771,13.77l23.691,7.352C222.304,137.283,224.101,135.344,225.816,133.377z M177.921,167.995c3.881-1.754,8.002-3.8,12.24-6.166
	l-11.715-11.715l-13.771,13.77L177.921,167.995z M234.333,122.499c1.795-2.553,3.459-5.108,5.014-7.646l-0.202-0.202l-12.618-12.618
	l-13.77,13.771L234.333,122.499z M250.219,93.672l-7.666-7.666l-13.77,13.771l16.222,5.034
	C247.01,100.916,248.736,97.17,250.219,93.672z M257.94,70.618l-13.13,13.131l8.318,2.581
	C256.601,76.909,257.94,70.618,257.94,70.618z M90.67,174.248v21.109c3.1-0.358,6.13-0.818,9.082-1.363l10.393-19.746H90.67z
	 M19.482,174.248H0.912c0,0,5.395,3.502,14.513,7.707L19.482,174.248z M54.291,194.241l10.522-19.993H45.339v18.131
	c2.709,0.651,5.504,1.237,8.371,1.75C53.905,194.164,54.094,194.206,54.291,194.241z M68.004,195.91
	c2.604,0.178,5.245,0.28,7.922,0.289l11.553-21.951H68.004V195.91z M42.147,174.248H22.673v10.841
	c3.522,1.426,7.392,2.854,11.564,4.189L42.147,174.248z M113.336,188.717c5.634-3.202,11.08-5.828,16.052-7.966l3.422-6.503h-19.474
	V188.717z M136.001,178.073c4.515-1.716,8.386-2.966,11.313-3.825h-11.313V178.073z M59.706,266.23l-13.131,13.13
	c0,0,6.291-1.338,15.712-4.813L59.706,266.23z M94.016,231.92l15.317,15.317c1.967-1.715,3.907-3.511,5.806-5.397l-7.352-23.69
	L94.016,231.92z M75.733,250.203l-13.77,13.77l7.666,7.666c3.499-1.483,7.245-3.209,11.139-5.215L75.733,250.203z M90.81,260.767
	c2.538-1.555,5.093-3.219,7.646-5.014l-6.697-21.577l-13.771,13.77L90.81,260.767z M126.07,199.866l11.716,11.715
	c2.366-4.238,4.412-8.358,6.166-12.24l-4.111-13.247L126.07,199.866z M123.814,202.122l-13.77,13.771l14.926,14.926
	c1.938-2.445,3.756-4.913,5.458-7.385L123.814,202.122z M244.809,266.23l-2.581,8.318c9.421,3.474,15.712,4.813,15.712,4.813
	L244.809,266.23z M194.142,216.222l0.329-0.329l-13.771-13.771l-6.614,21.311c1.702,2.472,3.52,4.94,5.458,7.385L194.142,216.222z
	 M189.376,241.84c1.899,1.886,3.839,3.682,5.806,5.397l15.317-15.317l-13.771-13.77L189.376,241.84z M206.059,255.754
	c2.553,1.795,5.109,3.459,7.646,5.014l12.821-12.821l-13.77-13.77L206.059,255.754z M178.445,199.866l-13.771-13.771l-4.111,13.247
	c1.197,2.648,2.541,5.414,4.019,8.247c0.688,1.318,1.396,2.646,2.147,3.992L178.445,199.866z M234.887,271.64l7.666-7.666
	l-13.77-13.77l-5.034,16.222c2.541,1.309,5.009,2.487,7.396,3.568C232.415,270.568,233.671,271.125,234.887,271.64z
	 M162.417,183.839l-11.158-11.158c0,0,0.033,0.156,0.102,0.454c0.062,0.268,0.158,0.668,0.281,1.16l-9.545,9.545l0.071,0.071
	l5.786,5.786c0.604-1.597,3.588-10.513,4.171-12.596c0.048-0.012,0.08-0.018,0.132-0.031c0.052,0.013,0.084,0.02,0.132,0.031
	c0.434,1.549,3.213,10.064,4.171,12.596L162.417,183.839z"></path>
<path id="color_x5F_7" fill="#8D5840" d="M76.725,345.093c0.846-0.281,1.78-0.608,2.792-0.991l-1.913-1.913
	c0.705-0.339,1.465-0.691,2.288-1.052l3.874,1.202c1.71-0.773,3.525-1.674,5.392-2.716l-1.405-1.405
	c5.132-1.574,11.208-2.797,17.728-2.797c1.059,0,2.105,0.035,3.138,0.096c16.88,0.991,30.092,9.576,30.092,9.576H76.725z
	 M119.016,391.397l-46.994-46.995c0,0,0.015,0.069,0.045,0.2c0.027,0.118,0.07,0.294,0.124,0.511l-46.284,46.284
	c0,0,0.037-0.172,0.113-0.486c0.532-2.19,3.052-11.531,9.37-21.03c0.484-0.728,0.994-1.457,1.523-2.183
	c1.074-1.474,2.243-2.937,3.514-4.366c0.684-0.769,1.394-1.529,2.138-2.273c1.675-1.675,3.423-3.185,5.197-4.561
	c0.001-0.001,0.002-0.002,0.003-0.003c1.601-1.242,3.222-2.377,4.832-3.396c0.913-0.578,1.821-1.123,2.719-1.634
	c2.482-1.41,4.881-2.567,7.071-3.509c1.023-0.44,1.996-0.831,2.913-1.18c1.989-0.756,3.694-1.306,4.984-1.685H5.791
	c0,0,13.379-8.691,30.411-9.592c0.93-0.049,1.869-0.081,2.819-0.081c4.253,0,8.314,0.523,12.052,1.321
	c2.113,0.451,4.12,0.99,5.997,1.575c2.918,0.91,5.523,1.929,7.713,2.896c0.867,0.383,1.666,0.756,2.398,1.112
	c1.389,0.676,2.522,1.283,3.363,1.756l-44.639-44.639c1.524,0.472,10.737,2.394,20.412,8.578c1.083,0.692,2.171,1.44,3.256,2.244
	c1.288,0.953,2.568,1.988,3.826,3.111c0.963,0.858,1.914,1.762,2.842,2.726c3.225,3.349,5.976,6.856,8.162,10.352
	c0.567,0.906,1.098,1.807,1.598,2.698c1.388,2.47,2.529,4.856,3.452,7.025c0.444,1.042,0.836,2.031,1.184,2.959
	c0.835,2.225,1.405,4.073,1.764,5.356c0.002,0,0.003,0.001,0.004,0.001v-64.866c0,0,9.673,14.878,9.673,33.23
	c0,4.959-0.709,9.661-1.74,13.888c2.218-3.589,4.961-7.265,8.34-10.643c12.977-12.977,30.337-16.658,30.337-16.658l-45.369,45.369
	c0.564,0.154,1.259,0.355,2.069,0.609c1.001,0.314,2.184,0.715,3.486,1.201c0.877,0.327,1.813,0.698,2.795,1.111
	c2.212,0.93,4.651,2.084,7.19,3.503c2.57,1.437,5.232,3.139,7.842,5.153c0,0,0.001,0.001,0.001,0.001
	c1.819,1.404,3.612,2.955,5.328,4.671c0.717,0.717,1.402,1.45,2.063,2.19c1.238,1.385,2.382,2.803,3.434,4.233
	c0.593,0.806,1.158,1.616,1.696,2.424c6.305,9.489,8.821,18.816,9.352,21.004C118.979,391.225,119.016,391.397,119.016,391.397z
	 M282.228,356.741c0,0-10.516-6.833-23.951-7.622c-0.823-0.048-1.655-0.077-2.498-0.077c-5.189,0-10.026,0.973-14.11,2.226
	l1.118,1.118c-1.486,0.83-2.931,1.547-4.291,2.162l-3.084-0.957c-0.655,0.287-1.26,0.568-1.821,0.837l1.523,1.523
	c-0.82,0.31-1.553,0.563-2.236,0.789H282.228z M266.552,393.595l-37.404-37.404c0,0,0.012,0.055,0.036,0.159
	c0.022,0.094,0.055,0.234,0.098,0.406l-36.839,36.838c0,0,0.216-1.012,0.73-2.684c0.98-3.186,3.053-8.785,6.828-14.456
	c0.382-0.574,0.784-1.148,1.201-1.721c0.855-1.173,1.785-2.338,2.797-3.475c0.544-0.612,1.109-1.217,1.702-1.809
	c1.333-1.333,2.725-2.535,4.137-3.63c0.001-0.001,0.002-0.001,0.003-0.002c1.274-0.989,2.565-1.892,3.846-2.703
	c0.726-0.46,1.449-0.894,2.164-1.3c1.975-1.123,3.885-2.043,5.628-2.793c0.814-0.35,1.589-0.661,2.319-0.939
	c1.583-0.602,2.94-1.04,3.967-1.341h-51.331c0,0,10.649-6.917,24.205-7.634c0.74-0.039,1.487-0.064,2.244-0.064
	c3.385,0,6.617,0.416,9.592,1.051c1.682,0.359,3.279,0.788,4.773,1.254c2.323,0.725,4.396,1.535,6.139,2.305
	c0.69,0.305,1.326,0.602,1.909,0.885c1.106,0.538,2.008,1.021,2.677,1.398l-35.529-35.529c0.241,0.075,0.746,0.202,1.423,0.385
	c2.741,0.739,8.668,2.505,14.851,6.463c0.849,0.543,1.7,1.134,2.549,1.763c1.028,0.76,2.049,1.587,3.053,2.482
	c0.768,0.685,1.529,1.397,2.27,2.166c2.567,2.666,4.757,5.457,6.496,8.24c0.451,0.721,0.874,1.438,1.272,2.147
	c1.104,1.966,2.013,3.865,2.748,5.592c0.353,0.829,0.665,1.617,0.942,2.355c0.664,1.771,1.118,3.242,1.404,4.263
	c0.001,0,0.002,0.001,0.003,0.001v-51.628c0,0,7.699,11.841,7.699,26.449c0,3.947-0.565,7.689-1.385,11.053
	c1.765-2.857,3.949-5.782,6.638-8.471c10.329-10.329,24.146-13.258,24.146-13.258l-36.11,36.11c0.449,0.123,1.003,0.282,1.647,0.484
	c0.797,0.25,1.738,0.569,2.775,0.956c0.698,0.26,1.443,0.556,2.224,0.884c1.76,0.74,3.702,1.659,5.723,2.788
	c2.046,1.144,4.164,2.498,6.242,4.102c0,0,0.001,0,0.001,0.001c1.448,1.117,2.875,2.352,4.241,3.718
	c0.571,0.571,1.116,1.154,1.642,1.743c0.985,1.103,1.896,2.231,2.733,3.369c0.468,0.636,0.913,1.274,1.337,1.911
	c3.767,5.665,5.836,11.255,6.816,14.438C266.336,392.583,266.552,393.595,266.552,393.595z M224.67,527.404l-54.247-55.997
	l-53.327,4c0-4.162,0-20.573,0-24.615c0-2.999-4.661-3.004-4.661,0c0,8.322,0,16.643,0,24.965l-2.326,0.174
	c-4.113-4.113-8.226-8.226-12.339-12.339c-2.124-2.124-5.42,1.171-3.296,3.296c3.168,3.168,6.335,6.335,9.503,9.503l-3.551,0.266
	l-25.847,18.015c0.437,0.495,0.874,0.99,1.315,1.482l22.074-13.791l57.371,10.531l56.817,38.039l15.114,55.952
	c1.274,0.309,2.545,0.623,3.825,0.915L224.67,527.404z M436.938,252.925c-0.868,0.091-6.153-4.482-11.846-2.742
	c2.341,0.821,4.54,1.888,6.589,3.288c1.396,0.954,4.175,4.554,6.013,4.392c1.309-0.116,3.679-3.678,4.627-4.494
	c2.167-1.863,4.609-3.328,7.159-4.596C449.06,248.711,444.24,248.827,436.938,252.925z M493.671,260.931
	c-0.868-0.089-5.104-5.648-11.033-5.111c2.123,1.283,4.057,2.778,5.775,4.568c1.171,1.219,3.153,5.313,4.985,5.531
	c1.305,0.155,4.354-2.846,5.45-3.45c2.503-1.38,5.193-2.313,7.949-3.032C506.4,259.29,501.658,258.416,493.671,260.931z
	 M302.649,174.248c0,0-3.518-2.282-9.659-5.369c-6.276-3.156-15.299-7.151-26.164-10.434c-1.483-0.448-3.001-0.88-4.55-1.297
	c-8.488-2.287-17.926-4.05-27.938-4.638c-2.346-0.138-4.72-0.218-7.124-0.218c-14.801,0-28.595,2.776-40.244,6.349l3.189,3.189
	c-4.238,2.366-8.359,4.412-12.24,6.166l-8.795-2.73c-1.868,0.819-3.594,1.619-5.194,2.389l4.343,4.343
	c-2.297,0.869-4.417,1.613-6.338,2.25H302.649z M257.94,279.361l-106.68-106.68c0,0,0.033,0.156,0.102,0.454
	c0.062,0.268,0.158,0.668,0.281,1.16L46.575,279.361c0,0,5.133-24.195,21.526-48.84c1.099-1.653,2.256-3.307,3.458-4.956
	c2.438-3.345,5.091-6.667,7.976-9.91c1.553-1.745,3.164-3.47,4.853-5.159c3.803-3.803,7.773-7.243,11.801-10.368
	c0,0,0,0,0.001-0.001c3.636-2.821,7.318-5.386,10.973-7.701c2.072-1.312,4.134-2.55,6.172-3.708
	c5.634-3.202,11.08-5.828,16.052-7.966c2.322-0.999,4.532-1.886,6.614-2.678c4.515-1.716,8.386-2.966,11.313-3.825H0.912
	c0,0,13.151-8.549,33.162-14.978c10.397-3.341,22.652-6.096,35.872-6.796c2.112-0.112,4.242-0.184,6.4-0.184
	c9.654,0,18.874,1.187,27.358,2.999c4.796,1.024,9.352,2.246,13.614,3.576c6.624,2.067,12.537,4.378,17.51,6.574
	c1.969,0.869,3.783,1.717,5.445,2.525c3.153,1.534,5.725,2.911,7.635,3.986L46.575,70.618c3.177,0.984,21.061,4.74,40.961,16.206
	c1.779,1.025,3.573,2.114,5.376,3.266c2.459,1.572,4.93,3.269,7.392,5.093c2.923,2.165,5.829,4.514,8.686,7.062
	c2.186,1.949,4.344,4,6.451,6.188c7.32,7.603,13.566,15.563,18.527,23.5c1.286,2.058,2.492,4.103,3.628,6.124
	c3.15,5.607,5.741,11.023,7.837,15.948c1.007,2.366,1.897,4.612,2.688,6.718c1.895,5.05,3.189,9.245,4.004,12.158
	c0.003,0.001,0.006,0.001,0.009,0.002V25.633c0,0,2.226,3.429,5.256,9.432c6.496,12.866,16.701,37.595,16.701,66.002
	c0,11.258-1.61,21.93-3.951,31.526c5.034-8.148,11.262-16.491,18.932-24.161c29.459-29.459,68.866-37.814,68.866-37.814
	l-102.99,102.99c1.28,0.35,2.859,0.805,4.697,1.381c2.277,0.714,4.951,1.617,7.913,2.722c1.99,0.742,4.11,1.577,6.338,2.515
	c5.018,2.111,10.568,4.736,16.328,7.956c5.834,3.261,11.879,7.131,17.804,11.704c0,0,0.001,0,0.001,0.001
	c4.13,3.187,8.2,6.711,12.096,10.607c1.629,1.628,3.182,3.291,4.684,4.972c0.225,0.252,0.458,0.502,0.68,0.755
	c2.552,2.904,4.918,5.869,7.114,8.853c1.347,1.83,2.63,3.668,3.849,5.503c4.195,6.313,7.643,12.588,10.463,18.441
	c4.779,9.917,7.737,18.592,9.367,24.098C257.444,277.036,257.94,279.361,257.94,279.361z"></path>
<path id="color_x5F_6" fill="#3C1B12" d="M73.356,399.278l4.043-0.888v1.812C75.319,399.718,73.356,399.278,73.356,399.278z
	 M77.399,413.753v-1.812l-4.043,0.888C73.356,412.829,75.319,413.269,77.399,413.753z M77.399,427.304v-1.812l-4.043,0.888
	C73.356,426.38,75.319,426.82,77.399,427.304z M77.399,440.855v-1.812l-4.043,0.888C73.356,439.931,75.319,440.371,77.399,440.855z
	 M233.428,400.604v-1.442l-3.218,0.707C230.21,399.868,231.772,400.219,233.428,400.604z M233.428,411.389v-1.442l-3.218,0.707
	C230.21,410.654,231.772,411.004,233.428,411.389z M233.428,422.175v-1.442l-3.218,0.707
	C230.21,421.44,231.772,421.79,233.428,422.175z M233.428,432.961v-1.442l-3.218,0.707
	C230.21,432.225,231.772,432.576,233.428,432.961z M233.428,443.746v-1.442l-3.218,0.707
	C230.21,443.011,231.772,443.361,233.428,443.746z M204.422,506.504c0-2.537,0-5.074,0-7.612
	c5.973-5.973,11.946-11.946,17.919-17.919c1.833-1.833-1.011-4.679-2.845-2.845c-5.025,5.025-10.049,10.049-15.074,15.074
	c0-10.315,0-20.629,0-30.944c0-3.49,0-6.98,0-10.471c0-2.589-4.023-2.593-4.023,0c0,7.904,0,15.807,0,23.711
	c-4.22-4.22-8.44-8.44-12.66-12.66c-1.833-1.833-4.679,1.011-2.845,2.845c5.169,5.168,10.337,10.337,15.505,15.505
	c0,7.054,0,14.108,0,21.162L204.422,506.504z M277.022,544.151c-5.356,5.356-10.713,10.713-16.069,16.069
	c3.8-1.586,7.609-3.198,11.425-4.834c2.647-2.646,5.293-5.293,7.939-7.939C282.441,545.323,279.147,542.027,277.022,544.151z
	 M227.751,556.365l0.285,2.675c0.018,0.019,0.029,0.04,0.048,0.059c3.412,3.412,6.824,6.824,10.235,10.235
	c1.579-0.61,3.16-1.226,4.742-1.849c-3.894-3.894-7.788-7.788-11.682-11.682C230.122,554.547,228.462,555.192,227.751,556.365z
	 M254.9,513.639c0,9.155,0,18.311,0,27.466c-4.888-4.888-9.777-9.777-14.665-14.665c-2.124-2.124-5.42,1.171-3.296,3.296
	c5.987,5.987,11.974,11.974,17.961,17.961c0,5.009,0,10.019,0,15.028c1.552-0.637,3.106-1.277,4.661-1.923
	c0-11.678,0-23.355,0-35.033c0-4.043,0-8.086,0-12.129C259.56,510.64,254.9,510.635,254.9,513.639z M154.289,297.252
	c0,0,4.455,0.999,9.177,2.098v-4.114L154.289,297.252z M154.289,328.013c0,0,4.455,0.999,9.177,2.098v-4.113L154.289,328.013z
	 M154.289,358.775c0,0,4.455,0.999,9.177,2.098v-4.114L154.289,358.775z M163.466,387.521l-9.177,2.016c0,0,4.455,0.999,9.177,2.098
	v-0.724V387.521z M154.289,420.299c0,0,4.455,0.999,9.177,2.098v-4.113L154.289,420.299z M163.466,449.045l-9.177,2.016
	c0,0,4.455,0.999,9.177,2.098V449.045z M79.202,346.62c0.877,0.327,1.813,0.698,2.795,1.111l-1.389-2.639h-0.572h-0.834v1.44V346.62
	z M97.03,356.387l0,0.002c1.819,1.404,3.612,2.955,5.328,4.671c0.717,0.717,1.402,1.45,2.063,2.19l1.652-4.031l1.782,8.264
	c0.593,0.806,1.158,1.616,1.696,2.424c0.921,0.182,1.836,0.35,2.734,0.488l3.028-7.391l2.015,7.981
	c1.924,0.152,3.739,0.217,5.413,0.224l1.811-4.419l1.667,4.352c4.419-0.191,7.203-0.718,7.203-0.718s-0.195-0.28-0.564-0.769
	c-0.939-1.242-3.044-3.875-6.182-6.975c-2.848-2.814-6.545-6.004-10.992-8.882c-0.166,0.03-0.32,0.072-0.487,0.101l-0.327-0.621
	c-1.791-1.12-3.698-2.183-5.714-3.148v4.505c-1.147,0.079-2.311,0.123-3.49,0.127l-3.97-7.542c-0.846-0.26-1.688-0.493-2.525-0.71
	v7.881c-1.365-0.158-2.7-0.361-4.001-0.6l-4.578-8.699h-1.406v6.142c2.57,1.437,5.232,3.139,7.842,5.153L97.03,356.387z
	 M89.921,397.134l0.837-1.878l-4.405,1.845c-1.178-1.189-2.417-2.518-3.67-3.986l1.315-2.203l2.904-4.865l-7.367,3.085
	c-0.726-0.99-1.44-2.027-2.136-3.105v0.625c-1.404-0.327-2.742-0.63-3.471-0.795c-1.039,1.648-2.109,3.364-3.167,5.075v0.568
	c2.203,0.514,4.387,1.004,4.387,1.004l-4.387,0.964v11.583c2.203,0.514,4.387,1.004,4.387,1.004l-4.387,0.964V418.6
	c2.203,0.514,4.387,1.004,4.387,1.004l-4.387,0.964v11.583c2.203,0.514,4.387,1.004,4.387,1.004l-4.387,0.964v8.688
	c-1.127,0.149-2.25,0.299-3.346,0.454v-8.407v-3.512v-10.04v-3.512v-10.04v-3.512v-7.107v-0.758v-2.175v-3.29v-0.222v-26.478
	c-0.097,0.01-0.193,0.024-0.292,0.024c-2.278,0-4.167-2.682-4.549-6.208l3.512,3.512c1.042-1.867,1.944-3.682,2.716-5.392
	l-1.811-5.835l0.994-0.994l2.58,2.58c0.267-0.706,0.5-1.36,0.716-1.987c0.492-1.425,0.865-2.645,1.121-3.561
	c0.021-0.005,0.035-0.008,0.058-0.014c0.023,0.006,0.037,0.009,0.058,0.014c0.191,0.681,1.415,4.432,1.837,5.549l2.58-2.58
	l0.994,0.994l-1.811,5.835c0.524,1.159,1.13,2.377,1.775,3.616c0.307,0.589,0.605,1.174,0.941,1.776l5.161-5.161l0.994,0.994
	l-2.914,9.388c0.75,1.089,1.55,2.176,2.404,3.253l4.227-4.226c0.623,1.207,1.215,2.453,1.761,3.743l-1.657,5.339
	c0.837,0.831,1.691,1.622,2.558,2.377l1.339-1.339c1.529,5.369,2.177,10.565,2.382,15.005c0.106,2.309,0.093,4.407,0.023,6.222
	c-0.167,4.277-0.653,6.964-0.653,6.964s-2.341-1.596-5.601-4.586L89.921,397.134z M77.399,368.376v1.967l1.791-2.717L77.399,368.376
	z M83.046,376.836l-5.647,2.365v1.244c-1.012,1.542-2.126,3.282-3.284,5.115l3.284-0.721v0.749L83.046,376.836z M76.937,341.521
	l0.667,0.667c0.705-0.339,1.465-0.691,2.288-1.052l-1.961-0.609L76.937,341.521z M110.736,318.839l0.089,0.089
	c-0.685,1.118-1.418,2.244-2.209,3.368l-5.13-1.592c-1.221,0.399-2.443,0.847-3.659,1.347l5.037,5.037
	c-0.756,0.867-1.547,1.721-2.377,2.558l-10.436-3.239l-0.994,0.994l6.575,6.575c-1.077,0.854-2.164,1.654-3.253,2.404l-9.388-2.913
	l-0.994,0.994l3.756,3.756c5.132-1.574,11.208-2.797,17.728-2.797c1.059,0,2.105,0.035,3.138,0.096l-2.302-4.942l9.195,5.432
	c1.128-0.786,2.202-1.593,3.228-2.408l-3.373-7.24l7.229,3.937c1.418-1.309,2.697-2.599,3.838-3.824l-2.017-4.329l4.328,1.729
	c2.859-3.375,4.362-5.777,4.362-5.777S122.83,316.507,110.736,318.839z M59.931,357.372l0.266,0.857
	c0.491-0.388,0.952-0.775,1.417-1.162l-0.689-0.689L59.931,357.372z M65.3,345.093h-1.406l-1.508,2.865
	c1.023-0.44,1.996-0.831,2.913-1.18V345.093z M64.784,341.212c0.867,0.383,1.666,0.756,2.398,1.112l0.804-0.803l-0.994-0.994
	L64.784,341.212z M53.623,345.638l-4.291,8.154c-1.3,0.24-2.635,0.443-4.001,0.6v-7.801c-0.859,0.227-1.722,0.476-2.589,0.749
	l-3.906,7.422c-1.179-0.004-2.343-0.049-3.49-0.127v-4.358c-2.077,1.01-4.034,2.125-5.869,3.295l-0.172,0.328
	c-0.086-0.015-0.165-0.037-0.251-0.052c-11.226,7.289-17.662,16.577-17.662,16.577s2.784,0.526,7.203,0.718l1.667-4.352l1.811,4.419
	c1.674-0.007,3.49-0.071,5.413-0.224l2.015-7.981l3.028,7.391c0.939-0.145,1.895-0.321,2.859-0.514
	c0.484-0.728,0.994-1.457,1.523-2.183l1.828-8.479l1.685,4.114c0.684-0.769,1.394-1.529,2.138-2.273
	c1.675-1.675,3.423-3.185,5.197-4.561l0.001-0.007l0.002,0.004c1.601-1.242,3.222-2.377,4.832-3.396
	c0.913-0.578,1.821-1.123,2.719-1.634v-5.594v-0.78H53.91L53.623,345.638z M72.407,339.134v-1.406l-2.952-1.553
	c0.444,1.042,0.836,2.031,1.184,2.959H72.407z M56.243,316.1c3.225,3.349,5.976,6.856,8.162,10.352
	c0.567,0.906,1.098,1.807,1.598,2.698h6.404v-1.406l-8.698-4.578c-0.24-1.3-0.443-2.635-0.6-4.001h8.189
	c-0.197-0.774-0.413-1.551-0.65-2.332l-7.91-4.163c0.004-1.179,0.049-2.343,0.127-3.49h4.768c-0.981-1.984-2.071-3.859-3.231-5.619
	l-0.802-0.422c0.035-0.199,0.084-0.383,0.121-0.581c-7.951-11.522-18.557-17.877-18.557-17.877s-0.438,2.799-0.489,7.222
	l4.403,1.528l-4.36,1.95c0.06,1.673,0.182,3.486,0.395,5.404l8.041,1.761l-7.291,3.261c0.136,0.729,0.291,1.468,0.456,2.212
	c1.083,0.692,2.171,1.44,3.256,2.244l7.655,1.398l-3.829,1.712C54.364,314.232,55.315,315.136,56.243,316.1z M60.925,334.461
	l-0.994-0.994l-0.543,0.168l-8.845,2.745c-1.089-0.75-2.176-1.55-3.253-2.404l6.575-6.575l-0.994-0.994l-10.436,3.239
	c-0.831-0.837-1.622-1.691-2.378-2.558l5.246-5.246c-1.105-0.481-2.214-0.917-3.323-1.307l-5.675,1.761
	c-0.791-1.125-1.524-2.251-2.209-3.368l0.42-0.42c-12.341-2.451-22.811-0.414-22.811-0.414s1.503,2.402,4.362,5.777l4.328-1.729
	l-2.017,4.329c1.141,1.224,2.421,2.514,3.838,3.824l7.229-3.937l-3.373,7.24c1.026,0.816,2.1,1.623,3.229,2.408l9.195-5.432
	l-2.295,4.926c0.93-0.049,1.869-0.081,2.819-0.081c4.253,0,8.314,0.523,12.052,1.321c2.113,0.451,4.12,0.99,5.997,1.575l3.421-3.421
	L60.925,334.461z M234.864,357.957c0.698,0.26,1.443,0.556,2.224,0.884l-1.105-2.1h-1.119V357.957z M263.901,363.67
	c-0.132,0.024-0.255,0.057-0.388,0.081l-0.26-0.494c-1.426-0.892-2.943-1.738-4.548-2.506v3.585
	c-0.913,0.063-1.839,0.098-2.777,0.101l-3.16-6.003c-0.673-0.207-1.343-0.393-2.01-0.565v6.273
	c-1.087-0.126-2.149-0.287-3.184-0.478l-3.644-6.923h-1.119v4.888c2.046,1.144,4.164,2.498,6.242,4.102l0.001-0.001l0,0.002
	c1.448,1.117,2.875,2.352,4.241,3.718c0.571,0.571,1.116,1.154,1.642,1.743l0.202-0.493l1.112-2.715l0.585,2.715l0.833,3.862
	c0.468,0.636,0.913,1.274,1.337,1.911c0.735,0.145,1.472,0.296,2.188,0.407l2.41-5.883l1.604,6.352
	c1.531,0.121,2.976,0.172,4.309,0.178l1.441-3.517l1.327,3.464c3.517-0.152,5.733-0.571,5.733-0.571s-1.905-2.747-5.41-6.203
	C270.348,368.47,267.419,365.948,263.901,363.67z M247.559,397.134c-0.084,3.999-0.551,6.571-0.551,6.571s-1.863-1.27-4.458-3.65
	l1.511-3.388l-3.506,1.468c-0.313-0.315-2.256-2.393-2.921-3.173l3.357-5.626l-5.864,2.455c-0.205-0.28-0.401-0.592-0.604-0.881
	c-0.368-0.524-0.738-1.043-1.096-1.596v0.503c-1.118-0.26-2.182-0.502-2.763-0.633c-0.827,1.312-1.678,2.678-2.521,4.039v0.452
	c1.753,0.41,3.492,0.799,3.492,0.799l-3.492,0.767v9.219c1.753,0.409,3.492,0.799,3.492,0.799l-3.492,0.767v9.219
	c1.753,0.409,3.492,0.799,3.492,0.799l-3.492,0.767v9.219c1.753,0.41,3.492,0.799,3.492,0.799l-3.492,0.767v9.219
	c1.753,0.41,3.492,0.799,3.492,0.799l-3.492,0.767v6.236c-0.445-0.226-0.872-0.469-1.259-0.751
	c-0.498-0.362-0.962-0.796-1.404-1.276v-70.655c-0.078,0.008-0.153,0.038-0.232,0.038c-0.851,0-1.624-0.489-2.248-1.277
	c-0.704-0.89-1.205-2.172-1.367-3.659l2.789,2.789c0.83-1.486,1.547-2.931,2.162-4.291l-1.441-4.645l0.771-0.771l0.02-0.02
	l0.028,0.028l2.025,2.026c0.209-0.552,1.257-3.682,1.462-4.416c0.017-0.004,0.028-0.007,0.046-0.011
	c0.018,0.004,0.03,0.007,0.047,0.011c0.153,0.548,1.13,3.537,1.462,4.416l2.053-2.054l0.791,0.791l-1.441,4.645
	c0.415,0.918,0.895,1.883,1.406,2.865c0.246,0.473,0.486,0.943,0.755,1.426l4.108-4.108l0.791,0.791l-2.319,7.472
	c0.597,0.867,1.234,1.732,1.914,2.589l3.364-3.364c0.496,0.961,0.967,1.953,1.402,2.979l-1.319,4.249
	c0.666,0.661,1.346,1.291,2.036,1.892l1.066-1.066c0.962,3.377,1.486,6.669,1.744,9.645
	C247.558,393.211,247.597,395.317,247.559,397.134z M233.428,376.838l1.425-2.162l-1.425,0.597V376.838z M237.923,382.006
	l-4.495,1.882v0.99c-0.805,1.227-1.692,2.612-2.614,4.071l2.614-0.574v0.596L237.923,382.006z M233.06,353.898l0.531,0.531
	c0.561-0.27,1.166-0.55,1.821-0.837l-1.561-0.484L233.06,353.898z M239.471,347.488l-0.791,0.791l2.989,2.989
	c4.084-1.253,8.921-2.226,14.11-2.226c0.843,0,1.675,0.028,2.498,0.077l-1.832-3.933l7.319,4.324
	c0.898-0.625,1.753-1.268,2.569-1.917l-2.684-5.763l5.754,3.133c1.128-1.042,2.147-2.069,3.055-3.043l-1.605-3.446l3.444,1.376
	c2.275-2.686,3.472-4.598,3.472-4.598s-8.181-1.263-17.806,0.593l0.071,0.071c-0.545,0.89-1.129,1.786-1.758,2.681l-4.083-1.267
	c-0.972,0.318-1.944,0.674-2.912,1.072l4.009,4.009c-0.601,0.69-1.231,1.37-1.892,2.036l-8.306-2.578l-0.791,0.791l5.233,5.233
	c-0.857,0.68-1.723,1.317-2.589,1.914L239.471,347.488z M222.68,356.741l-1.2,2.28c0.814-0.35,1.589-0.661,2.319-0.939v-1.341
	H222.68z M220.316,365.723l-0.791,0.791l0.212,0.682c0.391-0.309,0.758-0.617,1.128-0.925L220.316,365.723z M195.287,363.49
	l-0.137,0.261c-0.069-0.012-0.132-0.029-0.2-0.042c-3.492,2.267-6.4,4.773-8.648,6.991c-3.505,3.457-5.41,6.203-5.41,6.203
	s2.216,0.419,5.733,0.571l1.327-3.464l1.441,3.517c1.332-0.006,2.778-0.057,4.309-0.178l1.604-6.352l2.41,5.883
	c0.748-0.116,1.518-0.271,2.287-0.425c0.382-0.574,0.784-1.148,1.201-1.721l0.87-4.034l0.586-2.715l1.113,2.715l0.229,0.559
	c0.544-0.612,1.109-1.217,1.702-1.809c1.333-1.333,2.725-2.535,4.137-3.63l0.001-0.005l0.002,0.003
	c1.274-0.989,2.565-1.892,3.846-2.703c0.726-0.46,1.449-0.894,2.164-1.3v-5.073h-1.119l-3.644,6.923
	c-1.035,0.191-2.098,0.352-3.184,0.478v-6.209c-0.684,0.181-1.371,0.379-2.06,0.596l-3.109,5.907
	c-0.938-0.003-1.865-0.039-2.777-0.101v-3.469C198.304,361.671,196.747,362.559,195.287,363.49z M200.721,338.597
	c-0.629-0.895-1.213-1.791-1.758-2.681l0.335-0.335c-0.692-0.137-1.375-0.258-2.049-0.361c-8.904-1.369-16.107,0.032-16.107,0.032
	s1.196,1.912,3.472,4.598l3.444-1.376l-1.605,3.446c0.908,0.975,1.927,2.001,3.055,3.043l2.983-1.624l2.771-1.509l-2.684,5.763
	c0.817,0.649,1.672,1.292,2.57,1.917l7.319-4.324l-1.827,3.921c0.74-0.039,1.487-0.064,2.244-0.064c3.385,0,6.617,0.416,9.592,1.051
	c1.682,0.359,3.279,0.788,4.773,1.254l2.723-2.723l0.346-0.346l-0.791-0.791l-0.432,0.134l-7.04,2.185
	c-0.867-0.597-1.732-1.234-2.59-1.914l5.233-5.233l-0.791-0.791l-8.306,2.578c-0.661-0.666-1.291-1.346-1.892-2.036l4.175-4.175
	c-0.88-0.383-1.762-0.73-2.645-1.04L200.721,338.597z M225.936,353.898l-0.791-0.791l-1.757,0.545
	c0.69,0.305,1.326,0.602,1.909,0.885L225.936,353.898z M229.455,351.999v-1.119l-2.349-1.236c0.353,0.829,0.665,1.617,0.942,2.355
	H229.455z M207.772,308.659c0,0-0.349,2.228-0.389,5.748l3.504,1.217l-3.47,1.552c0.048,1.332,0.145,2.774,0.314,4.301l6.4,1.402
	l-5.803,2.595c0.109,0.583,0.257,1.186,0.39,1.781c0.849,0.543,1.7,1.134,2.549,1.763l6.108,1.116l-3.055,1.366
	c0.768,0.685,1.529,1.397,2.27,2.166c2.567,2.666,4.757,5.457,6.496,8.24c0.451,0.721,0.874,1.438,1.272,2.147h5.097v-1.119
	l-6.923-3.644c-0.191-1.035-0.352-2.098-0.478-3.184h6.518c-0.157-0.616-0.329-1.234-0.517-1.856l-6.296-3.313
	c0.003-0.938,0.039-1.865,0.101-2.777h3.795c-0.781-1.579-1.648-3.072-2.572-4.472l-0.638-0.336
	c0.028-0.159,0.067-0.305,0.096-0.462C216.213,313.717,207.772,308.659,207.772,308.659z M202.929,302.789
	c-0.376,3.449-0.73,5.404-0.73,5.404s-2.728-1.864-6.985-5.404c-1.694-1.408-3.623-3.074-5.729-5.006l4.309-9.662l-10,4.187
	c-2.675-2.699-5.487-5.716-8.33-9.048l9.576-16.046l-16.724,7.003c-1.003-1.369-1.993-2.783-2.975-4.225
	c-0.631-0.926-1.256-1.866-1.874-2.824v1.418c-3.173-0.738-6.218-1.43-7.879-1.805c-2.359,3.74-4.788,7.637-7.19,11.518v1.29
	c5,1.168,9.958,2.28,9.958,2.28l-9.958,2.187v26.295c5,1.168,9.958,2.28,9.958,2.28l-9.958,2.187v26.295
	c5,1.168,9.958,2.28,9.958,2.28l-9.958,2.187v26.295c5,1.168,9.958,2.28,9.958,2.28l-9.958,2.188v26.295
	c5,1.168,9.958,2.28,9.958,2.28l-9.958,2.188V433.4c5,1.168,9.958,2.28,9.958,2.28l-9.958,2.188v26.295
	c5,1.168,9.958,2.28,9.958,2.28l-9.958,2.188v4.43l-31.302,2.348c0-4.162,0-20.573,0-24.615c0-2.999-4.661-3.004-4.661,0
	c0,8.322,0,16.643,0,24.965l-2.326,0.174c-4.113-4.113-8.226-8.226-12.339-12.339c-2.124-2.124-5.42,1.171-3.296,3.296
	c3.168,3.168,6.335,6.335,9.503,9.503l-3.551,0.266l-25.847,18.015c-5.291-5.986-10.357-12.175-15.159-18.575
	c2.301-3.15,5.514-6.106,6.557-9.319c1.748-5.384-1.49-13.36,1.771-17.841c3.294-4.526,11.902-3.895,16.428-7.188
	c0.24-0.175,0.47-0.371,0.697-0.573c4.009-3.576,6.114-11.182,11.209-12.836c5.195-1.687,11.76,3.854,17.517,3.854
	c5.757,0,12.323-5.541,17.517-3.854c4.125,1.339,6.29,6.578,9.092,10.424c0.195,0.267,0.392,0.53,0.594,0.782v-0.009V217.648
	c-0.22,0.022-0.439,0.054-0.663,0.054c-5.172,0-9.46-6.088-10.326-14.093l7.972,7.972c2.366-4.238,4.412-8.358,6.166-12.24
	l-4.111-13.247l2.214-2.214l0.043-0.043l0.071,0.071l4.821,4.821l0.964,0.964c0.604-1.597,3.588-10.513,4.171-12.596
	c0.048-0.012,0.08-0.018,0.132-0.031c0.052,0.013,0.084,0.02,0.132,0.031c0.434,1.549,3.213,10.064,4.171,12.596l5.857-5.857
	l2.257,2.257l-4.111,13.247c1.197,2.648,2.541,5.414,4.019,8.247c0.688,1.318,1.396,2.646,2.147,3.992l10.02-10.02l1.695-1.695
	l2.257,2.257l-1.065,3.433l-5.548,17.878c1.702,2.472,3.52,4.94,5.458,7.385l9.594-9.594c1.415,2.74,2.758,5.569,3.997,8.496
	l-3.761,12.119c1.899,1.886,3.839,3.682,5.806,5.397l3.04-3.04c0.46,1.616,0.88,3.223,1.272,4.822
	c1.789,7.299,2.896,14.384,3.537,20.974C204.425,284.305,203.642,296.249,202.929,302.789z M163.466,231.568l4.065-6.167
	l-4.065,1.702V231.568z M176.285,246.307l-12.819,5.368v2.823c-2.296,3.5-4.827,7.451-7.455,11.613l7.455-1.638v1.701
	L176.285,246.307z M163.466,470.73v1.199l0.891-0.067C164.051,471.485,163.752,471.108,163.466,470.73z M155.338,492.894
	l-57.371-10.531l-22.074,13.791c39.499,44.091,91.951,76.325,151.377,90.732l-15.114-55.952L155.338,492.894z M495.854,506.587
	l-67.769,9.088l-49.978,30.076l-12.401,41.696c52.973-12.394,100.495-38.937,138.377-75.425L495.854,506.587z M433.755,277.824
	c0.595,0.871,1.392,3.595,2.497,3.918c0.787,0.23,2.973-1.302,3.71-1.561c1.683-0.591,3.434-0.887,5.205-1.045
	c-0.23-0.131-3.058-1.159-8.232-0.435c-0.525-0.144-2.558-4.002-6.262-4.284C431.847,275.426,432.883,276.546,433.755,277.824z
	 M250.398,194.025c-0.379,0.069-0.746,0.15-1.127,0.216l-0.742-1.409c-0.828-0.518-1.659-1.033-2.508-1.54
	c-3.323-1.981-6.818-3.863-10.464-5.608v10.226c-2.603,0.178-5.245,0.28-7.921,0.289l-9.011-17.122
	c-1.92-0.59-3.831-1.12-5.733-1.611v17.891c-3.1-0.358-6.13-0.818-9.082-1.363l-10.393-19.746h-3.191v13.935
	c5.834,3.261,11.879,7.131,17.804,11.704l0-0.001l0,0.001c4.13,3.187,8.2,6.711,12.096,10.607c1.629,1.628,3.182,3.291,4.684,4.972
	l3.749-9.151l2.136,9.906l1.909,8.853c1.347,1.83,2.63,3.668,3.849,5.503c2.091,0.414,4.167,0.794,6.206,1.109l6.874-16.778
	l4.575,18.117c4.367,0.346,8.489,0.491,12.289,0.508l4.11-10.032l3.784,9.879c10.032-0.434,16.352-1.629,16.352-1.629
	s-4.656-6.714-13.275-15.53C270.672,209.374,261.58,201.265,250.398,194.025z M227.215,152.291c2.404,0,4.777,0.081,7.124,0.218
	l-5.226-11.218l20.873,12.332c2.089-1.455,4.077-2.947,6.011-4.451c0.437-0.34,0.889-0.675,1.318-1.017l-7.656-16.435l16.411,8.937
	c2.4-2.217,4.625-4.409,6.676-6.534c0.699-0.724,1.379-1.44,2.037-2.147l-4.578-9.827l9.824,3.926
	c6.49-7.662,9.901-13.114,9.901-13.114s-23.333-3.603-50.785,1.691l0.202,0.202c-1.555,2.538-3.219,5.093-5.014,7.646l-11.645-3.614
	c-2.772,0.906-5.545,1.922-8.306,3.057l11.434,11.434c-1.715,1.967-3.511,3.907-5.397,5.806l-23.691-7.352l-2.257,2.257
	l14.926,14.926c-2.445,1.939-4.913,3.756-7.385,5.458l-21.311-6.614l-2.257,2.257l8.526,8.526
	C198.62,155.066,212.414,152.291,227.215,152.291z M169.126,165.266l-4.452-1.382l-2.257,2.257l1.514,1.514
	C165.531,166.885,167.257,166.085,169.126,165.266z M167.56,177.712c1.99,0.742,4.11,1.577,6.338,2.515l-3.146-5.978h-3.191V177.712
	z M126.07,199.866l-2.257,2.257l0.606,1.952c1.109-0.876,2.183-1.752,3.232-2.628L126.07,199.866z M132.81,174.248l-3.422,6.503
	c2.322-0.999,4.532-1.886,6.614-2.678v-3.825H132.81z M33.763,223.503l4.11,10.032c3.8-0.016,7.922-0.162,12.289-0.508l4.575-18.117
	l6.874,16.778c2.131-0.329,4.302-0.728,6.491-1.167c1.099-1.653,2.256-3.307,3.458-4.956l4.15-19.248l3.826,9.338
	c1.553-1.745,3.164-3.47,4.853-5.159c3.803-3.803,7.773-7.243,11.801-10.368l0-0.001l0,0.001c3.636-2.821,7.318-5.386,10.973-7.701
	c2.072-1.312,4.134-2.55,6.172-3.708v-12.666v-1.803h-3.191l-0.652,1.24l-9.74,18.507c-2.952,0.544-5.982,1.005-9.082,1.363v-17.708
	c-1.95,0.515-3.909,1.081-5.876,1.701l-8.868,16.848c-2.676-0.009-5.318-0.111-7.922-0.289v-9.893
	c-4.715,2.293-9.158,4.824-13.322,7.481l-0.392,0.744c-0.197-0.034-0.385-0.076-0.581-0.111
	c-25.477,16.546-40.083,37.623-40.083,37.623s6.32,1.195,16.352,1.629L33.763,223.503z M34.065,122.149l-4.578,9.827
	c2.591,2.78,5.496,5.708,8.713,8.68l16.41-8.937l-7.656,16.435c2.33,1.852,4.768,3.684,7.329,5.467l20.873-12.332l-5.21,11.184
	c2.112-0.112,4.242-0.184,6.4-0.184c9.654,0,18.874,1.187,27.358,2.999c4.796,1.024,9.352,2.246,13.614,3.576l8.751-8.752
	l-2.256-2.257l-21.311,6.614c-2.472-1.703-4.94-3.52-7.385-5.458l14.926-14.926l-2.257-2.257l-23.691,7.352
	c-1.886-1.899-3.682-3.839-5.397-5.806l11.909-11.909c-2.509-1.093-5.027-2.082-7.543-2.967l-12.882,3.998
	c-1.795-2.553-3.459-5.108-5.014-7.646l0.954-0.954c-0.771-0.153-1.539-0.3-2.303-0.438c-27.001-4.875-49.481-0.501-49.481-0.501
	s3.411,5.452,9.901,13.114L34.065,122.149z M142.098,166.141l-2.257-2.257l-5.012,1.556c1.969,0.869,3.783,1.717,5.445,2.525
	L142.098,166.141z M89.278,61.402c0.137,3.797,0.413,7.913,0.897,12.266l9.187,2.012l9.067,1.986l-16.551,7.402
	c0.31,1.655,0.659,3.332,1.035,5.021c2.459,1.572,4.93,3.269,7.392,5.093l17.378,3.175l-8.691,3.887
	c2.186,1.949,4.344,4,6.451,6.188c7.32,7.603,13.566,15.563,18.527,23.5c1.286,2.058,2.492,4.103,3.628,6.124h14.538v-3.191
	l-19.746-10.393c-0.544-2.952-1.005-5.982-1.363-9.082h18.589c-0.448-1.756-0.938-3.521-1.475-5.294l-17.956-9.45
	c0.01-2.676,0.111-5.318,0.289-7.922h10.823c-2.227-4.503-4.702-8.761-7.334-12.755l-1.82-0.958
	c0.079-0.454,0.174-0.893,0.257-1.343c-4.537-6.572-9.449-12.399-14.269-17.445c-14.352-15.025-27.84-23.112-27.84-23.112
	s-0.994,6.354-1.11,16.395l9.994,3.47L89.278,61.402z M152.134,160.723v-3.191l-6.701-3.527c1.007,2.366,1.897,4.612,2.688,6.718
	H152.134z"></path>
<path id="color_x5F_5" fill="#FFD2BB" d="M74.115,385.56c1.158-1.833,2.272-3.574,3.284-5.115v4.394L74.115,385.56z
	 M70.761,390.93v0.568c2.203,0.514,4.387,1.004,4.387,1.004l-4.387,0.964v11.583c2.203,0.514,4.387,1.004,4.387,1.004l-4.387,0.964
	V418.6c2.203,0.514,4.387,1.004,4.387,1.004l-4.387,0.964v11.583c2.203,0.514,4.387,1.004,4.387,1.004l-4.387,0.964v8.688
	c2.154-0.285,4.37-0.559,6.638-0.823v-1.129c-2.08-0.484-4.043-0.924-4.043-0.924l4.043-0.888v-11.739
	c-2.08-0.484-4.043-0.924-4.043-0.924l4.043-0.888v-11.739c-2.08-0.484-4.043-0.924-4.043-0.924l4.043-0.888v-11.739
	c-2.08-0.484-4.043-0.924-4.043-0.924l4.043-0.888v-1.256v-10.483c-1.404-0.327-2.742-0.63-3.471-0.795
	C72.889,387.504,71.819,389.22,70.761,390.93z M233.428,384.879c-0.805,1.227-1.692,2.612-2.614,4.071l2.614-0.574V384.879z
	 M303.688,529.626c1.026,3.16,4.148,6.073,6.441,9.165c-12.638,5.634-25.234,11.233-37.75,16.596
	c2.647-2.646,5.293-5.293,7.939-7.939c2.124-2.124-1.171-5.42-3.296-3.296c-5.356,5.356-10.713,10.713-16.069,16.069
	c-0.464,0.194-0.929,0.389-1.393,0.581c0-11.678,0-23.355,0-35.033c0-4.043,0-8.086,0-12.129c0-2.999-4.661-3.004-4.661,0
	c0,9.155,0,18.311,0,27.466c-4.888-4.888-9.777-9.777-14.665-14.665c-2.124-2.124-5.42,1.171-3.296,3.296
	c5.987,5.987,11.974,11.974,17.961,17.961c0,5.009,0,10.019,0,15.028c-3.957,1.623-7.903,3.211-11.839,4.761
	c-3.894-3.894-7.788-7.788-11.682-11.682c-1.257-1.257-2.917-0.611-3.628,0.562l-3.081-28.961l-20.247-20.901
	c0-2.537,0-5.074,0-7.612c5.973-5.973,11.946-11.946,17.919-17.919c1.833-1.833-1.011-4.679-2.845-2.845
	c-5.025,5.025-10.049,10.049-15.074,15.074c0-10.315,0-20.629,0-30.944c0-3.49,0-6.98,0-10.471c0-2.589-4.023-2.593-4.023,0
	c0,7.904,0,15.807,0,23.711c-4.22-4.22-8.44-8.44-12.66-12.66c-1.833-1.833-4.679,1.011-2.845,2.845
	c5.169,5.168,10.337,10.337,15.505,15.505c0,7.054,0,14.108,0,21.162l-29.976-30.943l-6.065,0.455
	c-0.306-0.377-0.605-0.754-0.891-1.132v1.199l-15.069,1.13v-4.43l9.958-2.188c0,0-4.958-1.112-9.958-2.28v-26.295l9.958-2.188
	c0,0-4.958-1.112-9.958-2.28v-26.295l9.958-2.188c0,0-4.958-1.112-9.958-2.28v-26.295l9.958-2.188c0,0-4.958-1.112-9.958-2.28
	v-26.295l9.958-2.187c0,0-4.958-1.112-9.958-2.28V314.82l9.958-2.187c0,0-4.958-1.112-9.958-2.28v-26.295l9.958-2.187
	c0,0-4.958-1.112-9.958-2.28v-1.29c2.402-3.882,4.831-7.778,7.19-11.518c1.661,0.375,4.706,1.067,7.879,1.805v1.405v25.243
	l-9.177,2.016c0,0,4.455,0.999,9.177,2.098v26.648l-9.177,2.016c0,0,4.455,0.999,9.177,2.098v26.648l-9.177,2.016
	c0,0,4.455,0.999,9.177,2.098v26.648l-9.177,2.016c0,0,4.455,0.999,9.177,2.098v26.648l-9.177,2.016c0,0,4.455,0.999,9.177,2.098
	v26.4c3.387-2.394,9.128-2.504,12.457-4.926c1.227-0.893,2.254-2.209,3.233-3.637c2.108-3.074,3.994-6.669,7.168-7.699
	c4.484-1.456,10.11,3.061,15.08,3.061c4.97,0,10.596-4.517,15.08-3.061c4.05,1.315,6.003,6.806,8.997,10.06
	c0.442,0.48,0.906,0.914,1.404,1.276c0.387,0.282,0.814,0.525,1.259,0.751v-6.236l3.492-0.767c0,0-1.738-0.39-3.492-0.799v-9.219
	l3.492-0.767c0,0-1.738-0.39-3.492-0.799v-9.219l3.492-0.767c0,0-1.738-0.39-3.492-0.799v-9.219l3.492-0.767
	c0,0-1.738-0.39-3.492-0.799v-9.219l3.492-0.767c0,0-1.738-0.39-3.492-0.799v-0.452c0.842-1.361,1.694-2.727,2.521-4.039
	c0.581,0.131,1.645,0.373,2.763,0.633v9.343l-3.218,0.707c0,0,1.562,0.35,3.218,0.736v9.343l-3.218,0.707
	c0,0,1.562,0.35,3.218,0.736v9.343l-3.218,0.707c0,0,1.562,0.35,3.218,0.736v9.343l-3.218,0.707c0,0,1.562,0.35,3.218,0.736v9.343
	l-3.218,0.707c0,0,1.562,0.35,3.218,0.736v2.181c-1.079-0.151-2.165-0.308-3.235-0.454c3.843,1.315,8.527,1.829,10.684,4.793
	c2.815,3.869,0.26,10.632,1.769,15.279c1.456,4.484,7.547,8.431,7.547,13.401c0,4.537-5.065,8.222-7.057,12.241
	c4.184,0.967,8.767,3.853,12.929,3.853c5.757,0,12.323-5.541,17.517-3.854c5.384,1.748,7.425,10.148,11.906,13.41
	c4.526,3.294,13.134,2.663,16.428,7.189C305.178,516.266,301.939,524.242,303.688,529.626z M163.466,449.045l-9.177,2.016
	c0,0,4.455,0.999,9.177,2.098V449.045z M228.035,559.041l1.451,13.639c2.937-1.089,5.882-2.205,8.832-3.345
	c-3.412-3.412-6.824-6.824-10.235-10.235C228.064,559.08,228.053,559.06,228.035,559.041z M549.073,449.829
	c-5.757,0-12.322-5.541-17.517-3.854c-5.384,1.748-7.425,10.148-11.906,13.409c-4.526,3.294-13.134,2.662-16.428,7.188
	c-1.506,2.069-1.623,4.884-1.488,7.844c0.033,0.733,0.079,1.473,0.126,2.215c11.153-0.662,22.166-0.461,33.007,0.757
	c6.93-9.132,13.341-18.678,19.198-28.591C552.369,449.387,550.689,449.829,549.073,449.829z M163.466,254.498
	c-2.296,3.5-4.827,7.451-7.455,11.613l7.455-1.638V254.498z"></path>
<path id="color_x5F_4" fill="#00CEC9" d="M163.466,439.352c5.098,0.224,10.336,0.521,15.69,0.881
	c2.108-3.074,3.994-6.669,7.168-7.699c4.484-1.456,10.11,3.061,15.08,3.061c4.97,0,10.596-4.517,15.08-3.061
	c4.05,1.315,6.003,6.806,8.997,10.06v-45.46h-62.016V439.352z M218.353,406.706c2.82,0,2.815,4.375,0,4.375
	C215.533,411.081,215.538,406.706,218.353,406.706z M178.945,406.706c9.955,0,19.91,0,29.865,0c2.82,0,2.815,4.375,0,4.375
	c-9.955,0-19.91,0-29.865,0C176.125,411.081,176.13,406.706,178.945,406.706z M17.059,397.134h50.356v46.128
	c-10.251,1.444-19.124,3.099-26.663,4.757C31.329,431.957,23.373,414.936,17.059,397.134z M95.114,397.134h45.689v41.634
	c-0.197-0.001-0.397-0.004-0.594-0.005c-2.801-3.846-4.967-9.085-9.092-10.424c-5.195-1.687-11.76,3.854-17.517,3.854
	c-5.757,0-12.322-5.541-17.517-3.854c-5.095,1.655-7.2,9.26-11.209,12.836c-2.562,0.254-5.043,0.527-7.474,0.81v-44.851h12.522
	l-1.061,2.378c3.26,2.99,5.601,4.586,5.601,4.586S94.947,401.411,95.114,397.134z M401.505,397.134v4.323c22.815,0,45.63,0,68.444,0
	c2.82,0,2.815,4.375,0,4.375c-4.283,0-8.567,0-12.85,0c-5.18,0-10.359,0-15.539,0v4.958c2.722,0,5.444,0,8.167,0
	c2.82,0,2.815,4.375,0,4.375c-9.852,0-19.704,0-29.556,0c-2.82,0-2.815-4.375,0-4.375c4.407,0,8.815,0,13.222,0v-4.958
	c-21.518,0-43.037,0-64.555,0c-2.82,0-2.815-4.375,0-4.375c4.283,0,8.567,0,12.85,0c1.161,0,2.322,0,3.483,0v-4.323H247.559
	c-0.084,3.999-0.551,6.571-0.551,6.571s-1.863-1.27-4.458-3.65l1.303-2.921h-0.906l-2.392,1.002
	c-0.313-0.315-0.637-0.662-0.959-1.002h-6.168v48.794c20.037,2.816,41.424,6.567,64.21,11.48
	c88.749,19.137,156.559,20.831,204.096,17.008c-0.135-2.96-0.018-5.775,1.488-7.844c3.294-4.526,11.902-3.894,16.428-7.188
	c4.481-3.261,6.522-11.661,11.906-13.409c5.195-1.687,11.76,3.854,17.517,3.854c1.616,0,3.296-0.442,4.991-1.033
	c9.623-16.289,17.736-33.572,24.152-51.663H401.505z M293.912,415.164c-13.136,0-26.272,0-39.408,0c-2.82,0-2.815-4.375,0-4.375
	c13.136,0,26.272,0,39.408,0C296.732,410.789,296.727,415.164,293.912,415.164z M313.81,405.831c-6.37,0-12.741,0-19.111,0
	c-2.82,0-2.815-4.375,0-4.375c6.37,0,12.741,0,19.111,0C316.63,401.456,316.625,405.831,313.81,405.831z M320.949,415.164
	c-2.82,0-2.815-4.375,0-4.375C323.769,410.789,323.764,415.164,320.949,415.164z M322.56,405.831c-2.82,0-2.815-4.375,0-4.375
	C325.38,401.456,325.375,405.831,322.56,405.831z M367.477,439.804c-6.222,0-12.444,0-18.667,0c-2.82,0-2.815-4.375,0-4.375
	c6.222,0,12.444,0,18.667,0C370.297,435.429,370.292,439.804,367.477,439.804z M357.258,427.78c2.82,0,2.815,4.375,0,4.375
	C354.439,432.155,354.443,427.78,357.258,427.78z M413.56,447.97c-1.037,0-2.074,0-3.111,0c-1.226,0-2.134-1.002-2.188-2.188
	c-0.053-1.181,1.043-2.188,2.188-2.188c1.037,0,2.074,0,3.111,0c1.226,0,2.134,1.002,2.188,2.188
	C415.801,446.964,414.704,447.97,413.56,447.97z M429.894,439.804c-6.222,0-12.444,0-18.667,0c-2.82,0-2.815-4.375,0-4.375
	c6.222,0,12.444,0,18.667,0C432.713,435.429,432.709,439.804,429.894,439.804z M441.949,423.38c-8.815,0-17.63,0-26.444,0v4.4
	c1.296,0,2.593,0,3.889,0c2.82,0,2.815,4.375,0,4.375c-6.968,0-13.935,0-20.903,0v3.274c1.523,0,3.046,0,4.569,0
	c2.82,0,2.815,4.375,0,4.375c-2.852,0-5.704,0-8.556,0v3.792c2.074,0,4.148,0,6.222,0c2.82,0,2.815,4.375,0,4.375
	c-6.573,0-13.147,0-19.72,0c-2.82,0-2.815-4.375,0-4.375c2.361,0,4.721,0,7.082,0v-3.792c-0.36,0-0.72,0-1.08,0
	c-2.82,0-2.815-4.375,0-4.375c1.689,0,3.377,0,5.066,0v-3.274c-7.745,0-15.491,0-23.236,0c-2.82,0-2.815-4.375,0-4.375
	c13.417,0,26.833,0,40.25,0v-4.4c-4.472,0-8.945,0-13.417,0c-2.82,0-2.815-4.375,0-4.375c1.037,0,2.074,0,3.111,0v-3.841
	c-6.579,0-13.157,0-19.736,0v3.841c1.394,0,2.787,0,4.181,0c2.82,0,2.815,4.375,0,4.375c-5.351,0-10.701,0-16.052,0
	c-2.82,0-2.815-4.375,0-4.375c1.818,0,3.637,0,5.455,0v-3.841c-13.708,0-27.417,0-41.125,0c-2.82,0-2.815-4.375,0-4.375
	c3.889,0,7.778,0,11.667,0v-4.958c-3.713,0-7.426,0-11.139,0c-2.82,0-2.815-4.375,0-4.375c9.287,0,18.574,0,27.861,0
	c2.82,0,2.815,4.375,0,4.375c-1.296,0-2.593,0-3.889,0v4.958c17.5,0,35,0,52.5,0c2.82,0,2.815,4.375,0,4.375
	c-1.102,0-2.204,0-3.306,0v3.841c12.25,0,24.5,0,36.75,0C444.769,419.005,444.764,423.38,441.949,423.38z M452.89,423.38
	c-2.82,0-2.815-4.375,0-4.375C455.71,419.005,455.705,423.38,452.89,423.38z M479.033,401.456c2.82,0,2.815,4.375,0,4.375
	C476.213,405.831,476.217,401.456,479.033,401.456z M496.977,432.155c-8.102,0-16.204,0-24.306,0c-2.82,0-2.815-4.375,0-4.375
	c8.102,0,16.204,0,24.306,0C499.797,427.78,499.792,432.155,496.977,432.155z M489.533,405.831c-2.82,0-2.815-4.375,0-4.375
	c6.37,0,12.741,0,19.111,0c2.82,0,2.815,4.375,0,4.375C502.273,405.831,495.903,405.831,489.533,405.831z M526.727,415.164
	c-7.13,0-14.26,0-21.39,0c-2.82,0-2.815-4.375,0-4.375c7.13,0,14.26,0,21.39,0C529.547,410.789,529.542,415.164,526.727,415.164z
	 M534.245,415.164c-2.82,0-2.815-4.375,0-4.375C537.065,410.789,537.06,415.164,534.245,415.164z"></path>
<path id="color_x5F_3" fill="#E84393" d="M466.781,390.911c6.218-11.07,9.779-23.833,9.779-37.434
	c0-4.836-0.469-9.561-1.327-14.149h27.07c1.246,0,2.257,1.01,2.257,2.257c0,1.246-1.01,2.257-2.257,2.257h-7.695
	c-2.611,0-4.943,1.909-5.191,4.509c-0.284,2.982,2.053,5.491,4.976,5.491h73.375h1.014c2.924,0,5.261-2.509,4.976-5.491
	c-0.125-1.306-0.776-2.437-1.724-3.24c-0.939-0.795-2.168-1.269-3.467-1.269h-52.125c-1.246,0-2.257-1.01-2.257-2.257
	c0-1.246,1.01-2.257,2.257-2.257h0.403c2.612,0,4.943-1.909,5.191-4.509c0.285-2.982-2.053-5.491-4.976-5.491h-11.272
	c-1.483,0-2.686-1.203-2.686-2.686c0-1.484,1.203-2.686,2.686-2.686h41.391c2.612,0,4.944-1.909,5.191-4.509
	c0.284-2.982-2.053-5.491-4.977-5.491h-56.158c-1.984,0-3.592-1.608-3.592-3.592s1.608-3.592,3.592-3.592h19.777
	c2.611,0,4.944-1.909,5.191-4.509c0.284-2.982-2.053-5.491-4.976-5.491h-59.781c-13.596-12.345-31.649-19.869-51.46-19.869
	c-34.322,0-63.368,22.582-73.096,53.698c-0.13-0.01-0.253-0.041-0.386-0.041h-37.618c-2.611,0-4.943,1.909-5.191,4.509
	c-0.284,2.982,2.053,5.491,4.977,5.491h12.123c0.906,0,1.641,0.735,1.641,1.641c0,0.906-0.735,1.641-1.641,1.641h-2.964
	c-2.611,0-4.943,1.909-5.191,4.509c-0.284,2.982,2.053,5.491,4.977,5.491h25.806c0.063,13.464,3.608,26.098,9.77,37.069h-67.37
	c0.514,1.672,0.73,2.684,0.73,2.684s-2.206-0.469-5.509-1.687l0.309-0.997h-13.994c0.199,2.299,0.239,4.406,0.2,6.222h137.613v4.323
	c-1.161,0-2.322,0-3.483,0c-4.283,0-8.567,0-12.85,0c-2.815,0-2.82,4.375,0,4.375c21.518,0,43.037,0,64.555,0v4.958
	c-4.407,0-8.815,0-13.222,0c-2.815,0-2.82,4.375,0,4.375c9.852,0,19.704,0,29.556,0c2.815,0,2.82-4.375,0-4.375
	c-2.722,0-5.444,0-8.167,0v-4.958c5.18,0,10.359,0,15.539,0c4.283,0,8.567,0,12.85,0c2.815,0,2.82-4.375,0-4.375
	c-22.815,0-45.63,0-68.444,0v-4.323h176.711c0.732-2.064,1.444-4.138,2.131-6.222H466.781z M484.144,326.642
	c0,1.484-1.203,2.686-2.686,2.686h-8.806c-0.605-1.82-1.262-3.616-1.996-5.372h10.802
	C482.941,323.956,484.144,325.159,484.144,326.642z M468.302,306.772c1.984,0,3.592,1.608,3.592,3.592s-1.608,3.592-3.592,3.592
	h-2.721c-1.506-2.494-3.16-4.886-4.932-7.184H468.302z M317.493,343.842c-0.906,0-1.641-0.735-1.641-1.641
	c0-0.906,0.735-1.641,1.641-1.641h7.026c-0.185,1.086-0.343,2.181-0.482,3.282H317.493z M240.053,390.911l-2.418,4.051
	c0.665,0.779,1.318,1.49,1.962,2.171h-6.168v-6.222h1.096c0.203,0.289,0.399,0.6,0.604,0.881l2.104-0.881H240.053z M242.947,397.134
	l1.114-0.467l-0.208,0.467H242.947z M27.808,390.911h39.607v6.222H17.059c-0.732-2.064-1.444-4.138-2.131-6.222h11.091
	c-0.076,0.313-0.113,0.486-0.113,0.486S26.598,391.249,27.808,390.911z M197.643,390.911h27.838v2.121v2.795v1.306h-62.016v-5.499
	v-0.724h29.708c-0.514,1.672-0.73,2.684-0.73,2.684s2.206-0.469,5.509-1.687L197.643,390.911z M118.903,390.911h21.899v6.222H95.114
	c0.071-1.816,0.084-3.914-0.023-6.222h22.023c1.21,0.338,1.902,0.486,1.902,0.486S118.979,391.225,118.903,390.911z M86.354,397.1
	l4.405-1.845l-0.837,1.878H77.399v-6.222h6.6l-1.315,2.203C83.936,394.582,85.175,395.912,86.354,397.1z M479.033,405.831
	c-2.82,0-2.815-4.375,0-4.375C481.852,401.456,481.848,405.831,479.033,405.831z M322.56,405.831c-2.82,0-2.815-4.375,0-4.375
	C325.38,401.456,325.375,405.831,322.56,405.831z M313.81,405.831c-6.37,0-12.741,0-19.111,0c-2.82,0-2.815-4.375,0-4.375
	c6.37,0,12.741,0,19.111,0C316.63,401.456,316.625,405.831,313.81,405.831z M489.533,405.831c-2.82,0-2.815-4.375,0-4.375
	c6.37,0,12.741,0,19.111,0c2.82,0,2.815,4.375,0,4.375C502.273,405.831,495.903,405.831,489.533,405.831z M293.912,415.164
	c-13.136,0-26.272,0-39.408,0c-2.82,0-2.815-4.375,0-4.375c13.136,0,26.272,0,39.408,0
	C296.732,410.789,296.727,415.164,293.912,415.164z M534.245,415.164c-2.82,0-2.815-4.375,0-4.375
	C537.065,410.789,537.06,415.164,534.245,415.164z M526.727,415.164c-7.13,0-14.26,0-21.39,0c-2.82,0-2.815-4.375,0-4.375
	c7.13,0,14.26,0,21.39,0C529.547,410.789,529.542,415.164,526.727,415.164z M218.353,411.081c-2.82,0-2.815-4.375,0-4.375
	C221.173,406.706,221.168,411.081,218.353,411.081z M208.81,411.081c-9.955,0-19.91,0-29.865,0c-2.82,0-2.815-4.375,0-4.375
	c9.955,0,19.91,0,29.865,0C211.63,406.706,211.625,411.081,208.81,411.081z M320.949,415.164c-2.82,0-2.815-4.375,0-4.375
	C323.769,410.789,323.764,415.164,320.949,415.164z M452.89,423.38c-2.82,0-2.815-4.375,0-4.375
	C455.71,419.005,455.705,423.38,452.89,423.38z M441.949,423.38c-8.815,0-17.63,0-26.444,0v4.4c1.296,0,2.593,0,3.889,0
	c2.82,0,2.815,4.375,0,4.375c-6.968,0-13.935,0-20.903,0v3.274c1.523,0,3.046,0,4.569,0c2.82,0,2.815,4.375,0,4.375
	c-2.852,0-5.704,0-8.556,0v3.792c2.074,0,4.148,0,6.222,0c2.82,0,2.815,4.375,0,4.375c-6.573,0-13.147,0-19.72,0
	c-2.82,0-2.815-4.375,0-4.375c2.361,0,4.721,0,7.082,0v-3.792c-0.36,0-0.72,0-1.08,0c-2.82,0-2.815-4.375,0-4.375
	c1.689,0,3.377,0,5.066,0v-3.274c-7.745,0-15.491,0-23.236,0c-2.82,0-2.815-4.375,0-4.375c13.417,0,26.833,0,40.25,0v-4.4
	c-4.472,0-8.945,0-13.417,0c-2.82,0-2.815-4.375,0-4.375c1.037,0,2.074,0,3.111,0v-3.841c-6.579,0-13.157,0-19.736,0v3.841
	c1.394,0,2.787,0,4.181,0c2.82,0,2.815,4.375,0,4.375c-5.351,0-10.701,0-16.052,0c-2.82,0-2.815-4.375,0-4.375
	c1.818,0,3.637,0,5.455,0v-3.841c-13.708,0-27.417,0-41.125,0c-2.82,0-2.815-4.375,0-4.375c3.889,0,7.778,0,11.667,0v-4.958
	c-3.713,0-7.426,0-11.139,0c-2.82,0-2.815-4.375,0-4.375c9.287,0,18.574,0,27.861,0c2.82,0,2.815,4.375,0,4.375
	c-1.296,0-2.593,0-3.889,0v4.958c17.5,0,35,0,52.5,0c2.82,0,2.815,4.375,0,4.375c-1.102,0-2.204,0-3.306,0v3.841
	c12.25,0,24.5,0,36.75,0C444.769,419.005,444.764,423.38,441.949,423.38z M496.977,432.155c-8.102,0-16.204,0-24.306,0
	c-2.82,0-2.815-4.375,0-4.375c8.102,0,16.204,0,24.306,0C499.797,427.78,499.792,432.155,496.977,432.155z M357.258,432.155
	c-2.82,0-2.815-4.375,0-4.375C360.078,427.78,360.073,432.155,357.258,432.155z M429.894,439.804c-6.222,0-12.444,0-18.667,0
	c-2.82,0-2.815-4.375,0-4.375c6.222,0,12.444,0,18.667,0C432.713,435.429,432.709,439.804,429.894,439.804z M367.477,439.804
	c-6.222,0-12.444,0-18.667,0c-2.82,0-2.815-4.375,0-4.375c6.222,0,12.444,0,18.667,0
	C370.297,435.429,370.292,439.804,367.477,439.804z M415.748,445.783c0.053,1.181-1.043,2.188-2.188,2.188c-1.037,0-2.074,0-3.111,0
	c-1.226,0-2.134-1.002-2.188-2.188c-0.053-1.181,1.043-2.188,2.188-2.188c1.037,0,2.074,0,3.111,0
	C414.787,443.595,415.695,444.598,415.748,445.783z M293.445,144.386c0.108-2.066,1.963-3.616,4.032-3.616h59.04
	c2.178,0,3.931,1.823,3.816,4.027c-0.108,2.066-1.963,3.616-4.032,3.616H355c-0.841,0-1.523,0.682-1.523,1.523
	s0.682,1.523,1.523,1.523h21.133c2.178,0,3.931,1.823,3.816,4.026c-0.108,2.066-1.963,3.616-4.032,3.616h-14.208
	c-0.841,0-1.523,0.682-1.523,1.523c0,0.841,0.682,1.523,1.523,1.523h1.942c2.178,0,3.931,1.823,3.816,4.027
	c-0.108,2.066-1.963,3.616-4.032,3.616h-1.79v3.28h53.566h2.434c2.069,0,3.924,1.549,4.032,3.616
	c0.115,2.204-1.637,4.027-3.816,4.027h-1.635H352.77c-2.178,0-3.931-1.823-3.816-4.027c0.108-2.066,1.963-3.616,4.032-3.616h2.532
	v-3.28h-20.781c-2.178,0-3.931-1.823-3.816-4.027c0.108-2.066,1.963-3.616,4.032-3.616h15.542c0.841,0,1.523-0.682,1.523-1.523
	c0-0.841-0.682-1.523-1.523-1.523h-3.276c-2.178,0-3.931-1.823-3.816-4.027c0.108-2.066,1.963-3.615,4.032-3.615h0.435
	c0.841,0,1.523-0.682,1.523-1.523s-0.682-1.523-1.523-1.523h-50.61C295.082,148.412,293.33,146.589,293.445,144.386z
	 M421.731,215.916c0.144-4.789,4.322-8.481,9.113-8.481h77.824c2.081,0,3.767-1.687,3.767-3.767s-1.687-3.767-3.767-3.767h-26.275
	c-4.784,0-8.66-3.843-8.737-8.609c-0.002-0.137-0.013-0.271-0.009-0.41c0.144-4.789,4.322-8.481,9.113-8.481h25.616
	c2.081,0,3.767-1.687,3.767-3.767c0-2.08-1.686-3.767-3.767-3.767H460.81c-4.922,0-8.895-4.064-8.746-9.019
	c0.144-4.789,4.322-8.481,9.113-8.481h65.956c3.158,0,5.719-2.561,5.719-5.719c0-3.159-2.56-5.719-5.719-5.719H509.81
	c-4.922,0-8.895-4.064-8.746-9.019c0.144-4.789,4.322-8.481,9.113-8.481h32.328c10.101,14.59,18.946,30.115,26.346,46.438h-23.774
	c-2.08,0-3.767,1.686-3.767,3.767c0,2.08,1.686,3.767,3.767,3.767h27.061c2.414,5.742,4.64,11.581,6.698,17.5h-42.216
	c-2.08,0-3.767,1.687-3.767,3.767s1.687,3.767,3.767,3.767h17.525c4.922,0,8.895,4.064,8.746,9.019
	c-0.144,4.789-4.322,8.481-9.113,8.481h-71.8h-51.5C425.555,224.935,421.582,220.871,421.731,215.916z M252.834,252.627
	c0.146-1.528,1.022-2.805,2.242-3.608c0.855-0.563,1.873-0.901,2.949-0.901h42.634c1.142,0,2.068-0.926,2.068-2.068
	c0-1.142-0.926-2.068-2.068-2.068h-2.167c-2.923,0-5.261-2.509-4.977-5.491c0.248-2.6,2.58-4.509,5.191-4.509h37.618
	c2.923,0,5.261,2.509,4.977,5.491c-0.248,2.6-2.58,4.509-5.191,4.509h-24.899c-1.142,0-2.068,0.926-2.068,2.068
	c0,1.142,0.926,2.068,2.068,2.068h9.266c1.06,0,2.039,0.338,2.848,0.901c1.422,0.989,2.31,2.69,2.129,4.59
	c-0.248,2.6-2.58,4.509-5.191,4.509h-8.894c-1.229,0-2.225,0.996-2.225,2.224c0,1.229,0.996,2.225,2.225,2.225h34.561
	c2.611,0,4.944,1.909,5.191,4.509c0.284,2.982-2.053,5.491-4.976,5.491h-54.556c-2.923,0-5.261-2.509-4.977-5.491
	c0.248-2.6,2.58-4.509,5.191-4.509h2.283c1.228,0,2.224-0.996,2.224-2.225c0-1.228-0.996-2.224-2.224-2.224H257.81
	C254.887,258.118,252.549,255.609,252.834,252.627z"></path>
<path id="color_x5F_2" fill="#FBC02D" d="M123.798,249.019h17.004v20.974h-17.004c-5.792,0-10.487-4.695-10.487-10.487
	C113.311,253.714,118.006,249.019,123.798,249.019z M255.138,370.7h1.698l-0.585-2.715L255.138,370.7z M247.719,191.292h-1.698
	c0.849,0.506,1.68,1.022,2.508,1.54L247.719,191.292z M472.651,329.328h8.806c1.484,0,2.686-1.203,2.686-2.686
	c0-1.484-1.203-2.686-2.686-2.686h-10.802C471.39,325.712,472.047,327.508,472.651,329.328z M468.302,306.772h-7.653
	c1.772,2.298,3.426,4.69,4.932,7.184h2.721c1.984,0,3.592-1.608,3.592-3.592S470.285,306.772,468.302,306.772z M590.31,331.576
	c0,6.759-5.48,12.239-12.239,12.239h-1.439c-1.686,0-3.256,0.479-4.597,1.296c-0.939-0.795-2.168-1.269-3.467-1.269h-52.125
	c-1.246,0-2.257-1.01-2.257-2.257c0-1.246,1.01-2.257,2.257-2.257h0.403c2.612,0,4.943-1.909,5.191-4.509
	c0.285-2.982-2.053-5.491-4.976-5.491h-11.272c-1.483,0-2.686-1.203-2.686-2.686c0-1.484,1.203-2.686,2.686-2.686h41.391
	c2.612,0,4.944-1.909,5.191-4.509c0.284-2.982-2.053-5.491-4.977-5.491h-56.158c-1.984,0-3.592-1.608-3.592-3.592
	s1.608-3.592,3.592-3.592h19.777c2.611,0,4.944-1.909,5.191-4.509c0.284-2.982-2.053-5.491-4.976-5.491h-59.781
	c-13.596-12.345-31.649-19.869-51.46-19.869c-34.322,0-63.368,22.582-73.096,53.698c-0.13-0.01-0.253-0.041-0.386-0.041h-37.618
	c-2.611,0-4.943,1.909-5.191,4.509c-0.284,2.982,2.053,5.491,4.977,5.491h12.123c0.906,0,1.641,0.735,1.641,1.641
	c0,0.906-0.735,1.641-1.641,1.641h-2.964c-2.611,0-4.943,1.909-5.191,4.509c-0.284,2.982,2.053,5.491,4.977,5.491h25.806
	c0.063,13.464,3.608,26.098,9.77,37.069H290.31c0.118-1.161,0.167-2.428,0.167-3.813c0-9.057-7.342-16.398-16.398-16.398h-1.47
	c-2.261-2.23-5.19-4.752-8.708-7.03c0.938-0.172,1.862-0.358,2.751-0.572v-6.357h1.119l2.774,5.27
	c1.463-0.468,2.819-0.969,4.054-1.469v-3.801h1.119l1.422,2.702c3.197-1.474,5.089-2.702,5.089-2.702s-10.516-6.833-23.951-7.622
	l-1.832-3.933l7.319,4.324c0.898-0.625,1.753-1.268,2.569-1.917l-2.684-5.763l5.754,3.133c1.128-1.042,2.147-2.069,3.055-3.043
	l-1.605-3.446l3.444,1.376c2.275-2.686,3.472-4.598,3.472-4.598s-8.181-1.263-17.806,0.593l-4.424-4.424l0.791-0.791l5.688,1.765
	c0.703-1.365,1.308-2.679,1.828-3.905l-2.688-2.688l0.791-0.791l2.916,0.905c1.218-3.303,1.688-5.509,1.688-5.509
	c0,0-13.817,2.929-24.146,13.258c-2.689,2.689-4.873,5.615-6.638,8.471c0.82-3.364,1.385-7.106,1.385-11.053
	c0-14.607-7.699-26.449-7.699-26.449s-1.228,1.892-2.702,5.089l2.702,1.422v1.119h-3.801c-0.5,1.235-1.001,2.592-1.469,4.055
	l5.27,2.774v1.119h-6.357c-0.208,0.865-0.388,1.765-0.557,2.676c-6.328-9.17-14.77-14.229-14.77-14.229s-0.349,2.228-0.389,5.748
	l3.504,1.217l-3.47,1.552c0.048,1.332,0.145,2.774,0.314,4.301l6.4,1.402l-5.803,2.595c0.109,0.583,0.257,1.186,0.39,1.781
	c-6.183-3.958-12.11-5.724-14.851-6.463c-3.008-3.568-7.505-5.84-12.538-5.84h-2.437c-3.358,0-6.081-2.723-6.081-6.081
	c0-3.358,2.723-6.081,6.081-6.081h16.321c4.257,3.54,6.985,5.404,6.985,5.404s0.354-1.955,0.73-5.404h43.753
	c9.057,0,16.398-7.342,16.398-16.398c0-5.466-2.685-10.294-6.797-13.274c-1.63-5.506-4.588-14.181-9.367-24.098h8.16
	c-1.22,0.803-2.096,2.08-2.242,3.608c-0.284,2.982,2.053,5.491,4.977,5.491h36.276c1.228,0,2.224,0.996,2.224,2.224
	c0,1.229-0.996,2.225-2.224,2.225h-2.283c-2.612,0-4.944,1.909-5.191,4.509c-0.284,2.982,2.053,5.491,4.977,5.491h54.556
	c2.923,0,5.261-2.509,4.976-5.491c-0.248-2.6-2.58-4.509-5.191-4.509h-34.561c-1.229,0-2.225-0.996-2.225-2.225
	c0-1.228,0.996-2.224,2.225-2.224h8.894c2.611,0,4.943-1.909,5.191-4.509c0.181-1.9-0.707-3.601-2.129-4.59h15.088
	c9.057,0,16.398-7.342,16.398-16.398c0-9.057-7.342-16.398-16.398-16.398h-61.046c-6.695-6.848-15.787-14.957-26.969-22.198
	c2.673-0.49,5.29-1.036,7.825-1.645v-1.088h19.523c7.509,0,13.825-5.054,15.769-11.941c5.814-2.951,9.134-5.102,9.134-5.102
	s-3.518-2.282-9.659-5.369c-2.4-6.077-8.314-10.384-15.244-10.384h-9.916c-0.339,0-0.672-0.023-1.004-0.051
	c-1.483-0.448-3.001-0.88-4.55-1.297c-3.113-1.598-5.44-4.493-6.28-7.975c0.437-0.34,0.889-0.675,1.318-1.017l-1.566-3.362
	c0.374-3.007,1.841-5.667,3.994-7.582l6.326,3.445c2.4-2.217,4.625-4.409,6.676-6.534h33.001c9.056,0,16.398-7.342,16.398-16.398
	c0-9.057-7.342-16.398-16.398-16.398h-0.026c-10.259,0-18.575-8.317-18.574-18.576v-0.342c0-5.493-4.452-9.946-9.945-9.946h-0.611
	c-6.877,0-12.363-5.486-12.363-12.253l0-0.379c0-6.976,5.656-12.632,12.632-12.632h24.3c7.724,0,13.986-6.262,13.986-13.986
	s6.262-13.986,13.986-13.986h31.528c7.724,0,13.986,6.262,13.986,13.986s6.262,13.986,13.986,13.986h23.965
	c6.976,0,12.632,5.656,12.632,12.632s-5.655,12.632-12.632,12.632h-10.221c-9.056,0-16.398,7.342-16.398,16.398
	s7.342,16.398,16.398,16.398h60.065c7.569,0,13.705,6.136,13.705,13.705s-6.136,13.705-13.705,13.705h-7.116
	c-7.131,0-12.912,5.781-12.912,12.912v2.445c0,5.781-4.686,10.467-10.467,10.467h-0.769c-8.452,0-15.285,6.414-15.964,14.574
	h-53.566v-3.28h1.79c2.069,0,3.924-1.549,4.032-3.616c0.115-2.204-1.637-4.027-3.816-4.027h-1.942c-0.841,0-1.523-0.682-1.523-1.523
	c0-0.841,0.682-1.523,1.523-1.523h14.208c2.069,0,3.924-1.549,4.032-3.616c0.115-2.204-1.637-4.026-3.816-4.026H355
	c-0.841,0-1.523-0.682-1.523-1.523s0.682-1.523,1.523-1.523h1.301c2.069,0,3.924-1.549,4.032-3.616
	c0.116-2.204-1.637-4.027-3.816-4.027h-59.04c-2.069,0-3.924,1.549-4.032,3.616c-0.115,2.204,1.637,4.027,3.816,4.027h50.61
	c0.841,0,1.523,0.682,1.523,1.523s-0.682,1.523-1.523,1.523h-0.435c-2.069,0-3.924,1.549-4.032,3.615
	c-0.115,2.204,1.637,4.027,3.816,4.027h3.276c0.841,0,1.523,0.682,1.523,1.523c0,0.841-0.682,1.523-1.523,1.523h-15.542
	c-2.069,0-3.924,1.549-4.032,3.616c-0.115,2.204,1.637,4.027,3.816,4.027h20.781v3.28h-2.532c-2.069,0-3.924,1.549-4.032,3.616
	c-0.115,2.204,1.637,4.027,3.816,4.027h63.455c2.35,6.18,8.312,10.58,15.316,10.58h42.115c0.077,4.766,3.953,8.609,8.737,8.609
	h26.275c2.081,0,3.767,1.687,3.767,3.767s-1.687,3.767-3.767,3.767h-77.824c-4.791,0-8.969,3.692-9.113,8.481
	c-0.149,4.955,3.824,9.019,8.746,9.019h51.5c-1.22,2.293-1.916,4.907-1.916,7.686c0,9.056,7.342,16.398,16.398,16.398h24.334
	c6.499,0,11.768,5.268,11.768,11.767c0,6.499,5.268,11.767,11.767,11.767h22.509c3.862,0,6.993,3.131,6.993,6.993
	c0,3.862-3.131,6.993-6.993,6.993h-3.462c-9.057,0-16.398,7.342-16.398,16.398c0,9.057,7.342,16.398,16.398,16.398h14.697
	C584.831,319.337,590.31,324.816,590.31,331.576z M406.283,267.825c-0.263-0.025-3.264,0.202-7.682,2.99
	c-0.538,0.084-3.978-2.595-7.47-1.329c1.485,0.436,2.89,1.031,4.211,1.837c0.9,0.55,2.748,2.704,3.888,2.544
	c0.812-0.114,2.174-2.41,2.739-2.949C403.26,269.689,404.734,268.698,406.283,267.825z M445.167,279.136
	c-0.23-0.131-3.058-1.159-8.232-0.435c-0.525-0.144-2.558-4.002-6.262-4.284c1.174,1.009,2.21,2.128,3.082,3.407
	c0.595,0.871,1.392,3.595,2.497,3.918c0.787,0.23,2.973-1.302,3.71-1.561C441.645,279.591,443.397,279.294,445.167,279.136z
	 M449.48,248.772c-0.42-0.061-5.24,0.054-12.542,4.153c-0.868,0.091-6.153-4.482-11.846-2.742c2.341,0.821,4.54,1.888,6.589,3.288
	c1.396,0.954,4.175,4.554,6.013,4.392c1.309-0.116,3.679-3.678,4.627-4.494C444.487,251.506,446.929,250.041,449.48,248.772z
	 M470.804,266.591c-0.236-0.12-3.111-1.007-8.244-0.03c-0.531-0.118-2.752-3.872-6.465-3.971c1.222,0.95,2.312,2.017,3.246,3.252
	c0.637,0.841,1.567,3.522,2.687,3.791c0.797,0.191,2.906-1.447,3.629-1.741C467.309,267.218,469.043,266.835,470.804,266.591z
	 M506.798,259.436c-0.398-0.146-5.14-1.021-13.127,1.494c-0.868-0.089-5.104-5.648-11.033-5.111
	c2.123,1.283,4.057,2.778,5.775,4.568c1.171,1.219,3.153,5.313,4.985,5.531c1.305,0.155,4.354-2.846,5.45-3.45
	C501.352,261.089,504.042,260.155,506.798,259.436z M315.852,342.201c0,0.906,0.735,1.641,1.641,1.641h6.544
	c0.138-1.102,0.297-2.196,0.482-3.282h-7.026C316.587,340.56,315.852,341.294,315.852,342.201z M250.71,336.249l-0.791,0.791
	l1.361,1.361c0.968-0.398,1.94-0.754,2.912-1.072L250.71,336.249z M185.04,267.214l-6.635,2.778h4.977L185.04,267.214z
	 M489.417,348.351c0.248-2.6,2.58-4.509,5.191-4.509h7.695c1.246,0,2.257-1.01,2.257-2.257c0-1.246-1.01-2.257-2.257-2.257h-27.07
	c0.858,4.588,1.327,9.312,1.327,14.149c0,13.601-3.561,26.364-9.779,37.434h69.013c-0.292-1.226-0.464-2.498-0.464-3.813
	c0-9.057,7.342-16.398,16.398-16.398h16.04v-16.858h-73.375C491.47,353.842,489.133,351.333,489.417,348.351z M230.695,216.222
	l-2.136-9.906l-3.749,9.151c0.225,0.252,0.458,0.502,0.68,0.755H230.695z M249.533,214.909l-0.538,1.313h0.869L249.533,214.909z
	 M205.238,337.195c0.882,0.31,1.765,0.657,2.645,1.04l1.195-1.195l-0.791-0.791L205.238,337.195z M169.811,249.019l-6.344,2.657
	v2.823v11.676l11.07-17.156H169.811z M196.515,325.176c0.191,0.47,0.363,0.948,0.511,1.439l0.813-0.813l-0.791-0.791
	L196.515,325.176z M202.074,370.7h1.698l-1.113-2.715L202.074,370.7z M250.758,357.869c0.667,0.172,1.337,0.358,2.01,0.565
	l-0.891-1.693h-1.119V357.869z M258.704,356.741v4.01c1.605,0.768,3.123,1.614,4.548,2.506l-3.429-6.516H258.704z M163.466,267.169
	v2.824h1.874C164.71,269.067,164.085,268.126,163.466,267.169z M220.865,366.271c-0.37,0.308-0.737,0.617-1.128,0.925l1.087,3.504
	h2.178c-0.704-0.89-1.205-2.172-1.367-3.659L220.865,366.271z M195.146,349.509c-0.898-0.625-1.753-1.268-2.57-1.917l2.684-5.763
	l-2.771,1.509c-2.928,2.727-6.844,4.409-11.162,4.409h-17.862v9.012v4.114v9.827h22.835c2.248-2.217,5.156-4.724,8.648-6.991
	c-1.006-0.18-1.989-0.383-2.939-0.611v-6.357h-1.119l-2.774,5.27c-1.463-0.468-2.819-0.969-4.054-1.469v-3.801h-1.119l-1.422,2.702
	c-3.197-1.474-5.089-2.702-5.089-2.702s10.649-6.917,24.205-7.634l1.827-3.921L195.146,349.509z M199.298,335.582l4.161-4.161
	l-0.791-0.791l-4.982,1.546c-0.052,1.044-0.199,2.061-0.437,3.044C197.923,335.324,198.606,335.444,199.298,335.582z
	 M231.144,269.993c-2.387-1.081-4.855-2.259-7.396-3.568l5.034-16.222l-1.185-1.185h-2.144l-11.749,11.749
	c-2.538-1.555-5.093-3.219-7.646-5.014l2.09-6.735h-8.655c1.789,7.299,2.896,14.384,3.537,20.974H231.144z M194.472,215.893
	l-0.329,0.329h0.659L194.472,215.893z M205.844,358.53c0.69-0.217,1.377-0.416,2.06-0.596v-1.193h-1.119L205.844,358.53z
	 M126.144,359.224c0,1.205,0.188,2.366,0.532,3.457c3.137,3.1,5.243,5.733,6.182,6.975c1.452,0.664,3.061,1.044,4.762,1.044h3.182
	v-0.658v-22.295h-3.182C131.282,347.748,126.144,352.886,126.144,359.224z M195.287,363.49c1.46-0.931,3.018-1.819,4.671-2.623
	v-4.126h-1.119L195.287,363.49z M244.809,266.23l-2.257-2.257l-6.019,6.019h7.108L244.809,266.23z M228.572,336.105h0.883v-1.119
	l-1.401-0.737C228.243,334.87,228.415,335.489,228.572,336.105z M225.655,328.158h3.8v-1.119l-6.372-3.353
	C224.007,325.086,224.874,326.579,225.655,328.158z M214.32,331.499l3.055-1.366l-6.108-1.116
	C212.295,329.777,213.316,330.603,214.32,331.499z M70.761,442.807c-1.127,0.149-2.25,0.299-3.346,0.454
	c-10.251,1.444-19.124,3.099-26.663,4.757c5.704,9.723,11.932,19.101,18.668,28.078c2.301-3.15,5.514-6.106,6.557-9.319
	c1.748-5.384-1.49-13.36,1.771-17.841c3.294-4.526,11.902-3.895,16.428-7.188c0.24-0.175,0.47-0.371,0.697-0.573
	c-2.562,0.254-5.043,0.527-7.474,0.81C75.131,442.248,72.915,442.522,70.761,442.807z M140.803,439.545v-0.009v-0.768
	c-0.197-0.001-0.397-0.004-0.594-0.005C140.404,439.03,140.601,439.293,140.803,439.545z M163.466,448.796
	c3.387-2.394,9.128-2.504,12.457-4.926c1.227-0.893,2.254-2.209,3.233-3.637c-5.354-0.361-10.593-0.657-15.69-0.881V448.796z
	 M297.638,457.408c-22.785-4.913-44.173-8.664-64.21-11.48c-1.079-0.151-2.165-0.308-3.235-0.454
	c3.843,1.315,8.527,1.829,10.684,4.793c2.815,3.869,0.26,10.632,1.769,15.279c1.456,4.484,7.547,8.431,7.547,13.401
	c0,4.537-5.065,8.222-7.057,12.241c4.184,0.967,8.767,3.853,12.929,3.853c5.757,0,12.323-5.541,17.517-3.854
	c5.384,1.748,7.425,10.148,11.906,13.41c4.526,3.294,13.134,2.663,16.428,7.189c3.261,4.481,0.023,12.457,1.771,17.841
	c1.026,3.16,4.148,6.073,6.441,9.165c64.613-28.806,130.301-58.514,191.731-62.159c-0.047-0.742-0.093-1.482-0.126-2.215
	C454.197,478.239,386.387,476.545,297.638,457.408z"></path>
<path id="color_x5F_1" fill="#0984E3" d="M233.428,389.315c0.357,0.553,0.727,1.072,1.096,1.596h-1.096V389.315z
	 M258.223,174.248v17.044h19.523c7.509,0,13.825-5.054,15.769-11.941c-1.61,0.817-3.401,1.692-5.379,2.605l-4.056-7.707h-3.191
	v10.841c-3.522,1.426-7.392,2.854-11.564,4.189l-7.911-15.03H258.223z M197.248,335.22c0.238-0.984,0.385-2,0.437-3.044
	l-0.706,0.219c-0.703-1.365-1.309-2.679-1.828-3.905l1.875-1.875c-0.148-0.49-0.32-0.969-0.511-1.439l-2.383,0.74
	c-1.218-3.303-1.688-5.509-1.688-5.509c0.241,0.075,0.746,0.202,1.423,0.385c-3.008-3.568-7.505-5.84-12.538-5.84h-2.437
	c-3.358,0-6.081-2.723-6.081-6.081c0-3.358,2.723-6.081,6.081-6.081h16.321c-1.694-1.408-3.623-3.074-5.729-5.006l4.309-9.662
	l-10,4.187c-2.675-2.699-5.487-5.716-8.33-9.048l7.918-13.267h-4.977l-10.089,4.225c-1.003-1.369-1.993-2.783-2.975-4.225h-1.874
	v77.755h17.862c4.318,0,8.233-1.682,11.162-4.409l-2.983,1.624c-1.128-1.042-2.147-2.069-3.055-3.043l1.605-3.446l-3.444,1.376
	c-2.275-2.686-3.472-4.598-3.472-4.598S188.344,333.851,197.248,335.22z M163.466,227.103v4.465l4.065-6.167L163.466,227.103z
	 M169.811,249.019h4.726l1.749-2.711L169.811,249.019z M212.892,177.466c1.902,0.491,3.812,1.021,5.733,1.611l-2.542-4.829h-3.191
	V177.466z M240.992,389.337l-3.76,1.575h2.821L240.992,389.337z M336.11,243.982h-24.899c-1.142,0-2.068,0.926-2.068,2.068
	c0,1.142,0.926,2.068,2.068,2.068h9.266c1.06,0,2.039,0.338,2.848,0.901h15.088c9.057,0,16.398-7.342,16.398-16.398
	c0-9.057-7.342-16.398-16.398-16.398h-61.046c8.619,8.817,13.275,15.53,13.275,15.53s-6.32,1.195-16.352,1.629l-3.784-9.879
	l-4.11,10.032c-3.8-0.016-7.922-0.162-12.289-0.508l-4.243-16.805h-0.869l-6.336,15.465c-2.038-0.315-4.114-0.695-6.206-1.109
	c4.195,6.313,7.643,12.588,10.463,18.441h8.16c0.855-0.563,1.873-0.901,2.949-0.901h42.634c1.142,0,2.068-0.926,2.068-2.068
	c0-1.142-0.926-2.068-2.068-2.068h-2.167c-2.923,0-5.261-2.509-4.977-5.491c0.248-2.6,2.58-4.509,5.191-4.509h37.618
	c2.923,0,5.261,2.509,4.977,5.491C341.054,242.073,338.722,243.982,336.11,243.982z M94.016,118.06l-2.257-2.257l-8.695,2.698
	c2.516,0.884,5.034,1.874,7.543,2.967L94.016,118.06z M77.399,386.026v0.625v4.26h6.6l2.904-4.865l-7.367,3.085
	C78.81,388.14,78.095,387.104,77.399,386.026z M233.428,383.888v5.084l4.495-6.966L233.428,383.888z M259.743,137.211l-10.084-5.492
	l6.09,13.073C256.122,141.786,257.59,139.126,259.743,137.211z M141.296,92.726h10.838v-3.191l-18.172-9.564
	C136.595,83.965,139.07,88.222,141.296,92.726z M108.99,102.245l8.691-3.887l-17.378-3.175
	C103.227,97.348,106.133,99.697,108.99,102.245z M234.339,152.509c10.012,0.588,19.45,2.351,27.938,4.638
	c-3.113-1.598-5.44-4.493-6.28-7.975c-1.934,1.504-3.922,2.996-6.011,4.451l-20.873-12.332L234.339,152.509z M99.172,346.51
	c0.838,0.216,1.679,0.45,2.525,0.71l-1.12-2.127h-1.406V346.51z M541.31,178.634c0,2.08,1.686,3.767,3.767,3.767h27.061
	c-1.063-2.529-2.156-5.041-3.286-7.534h-23.774C542.997,174.867,541.31,176.553,541.31,178.634z M263.081,286.391
	c0-5.466-2.685-10.294-6.797-13.274c1.16,3.919,1.656,6.244,1.656,6.244s-6.291-1.338-15.712-4.813l1.414-4.555h-7.108l-1.647,1.647
	c-1.216-0.515-2.471-1.072-3.743-1.647h-28.112c1.394,14.312,0.611,26.256-0.103,32.796h43.753
	C255.739,302.789,263.081,295.447,263.081,286.391z M233.428,376.838l1.425-2.162l-1.425,0.597V376.838z M194.801,216.222h-0.659
	l-5.002,5.002c1.415,2.74,2.758,5.569,3.997,8.496l3.591-11.572L194.801,216.222z M243.831,376.191l1.259-4.057l-0.791-0.791
	l-1.869,1.87C242.926,374.173,243.397,375.164,243.831,376.191z M235.557,185.684c3.646,1.745,7.141,3.627,10.464,5.608h1.698
	l-8.97-17.044h-3.191V185.684z M227.598,249.019l-1.072-1.072l-1.072,1.072H227.598z M198.222,244.196
	c0.46,1.616,0.88,3.223,1.272,4.822h8.655l4.606-14.842l-2.257-2.257L198.222,244.196z M232.604,225.075l-1.909-8.853h-5.205
	C228.042,219.126,230.408,222.091,232.604,225.075z M254.936,371.193c0.985,1.103,1.896,2.231,2.733,3.369l-0.833-3.862h-1.698
	L254.936,371.193z M62.575,358.027l-0.961-0.96c-0.464,0.387-0.926,0.774-1.417,1.162l2.648,8.531
	c-0.75,1.089-1.55,2.176-2.404,3.253l-6.575-6.575l-0.994,0.994l3.239,10.436c-0.837,0.831-1.691,1.622-2.558,2.377l-6.747-6.747
	l-0.994,0.994l2.95,9.505c-1.125,0.791-2.25,1.524-3.368,2.209l-5.648-5.648l-0.994,0.994l2.218,7.146
	c-1.715,0.884-3.366,1.644-4.907,2.297l-3.377-3.377l-0.994,0.994l1.137,3.664c-2.077,0.766-3.808,1.296-5.019,1.635h39.607v-0.222
	v-26.478c-0.097,0.01-0.193,0.024-0.292,0.024C64.845,364.235,62.956,361.553,62.575,358.027z M149.615,115.391h2.52V112.2
	l-3.995-2.103C148.677,111.87,149.167,113.635,149.615,115.391z M212.755,115.803l-2.257,2.257l3.883,3.883
	c2.761-1.135,5.534-2.151,8.306-3.057L212.755,115.803z M223.002,370.7h-2.178l1.02,3.286c-0.597,0.867-1.234,1.732-1.914,2.589
	l-5.233-5.233l-0.791,0.791l2.578,8.306c-0.666,0.661-1.346,1.291-2.036,1.892l-5.37-5.37l-0.791,0.791l2.348,7.565
	c-0.895,0.629-1.791,1.213-2.681,1.758l-4.495-4.495l-0.791,0.791l1.765,5.688c-1.365,0.703-2.679,1.309-3.906,1.828l-2.688-2.688
	l-0.791,0.791l0.596,1.92h27.838v-18.973c-0.078,0.008-0.153,0.038-0.232,0.038C224.399,371.977,223.625,371.488,223.002,370.7z
	 M277.746,158.495h-9.916c-0.339,0-0.672-0.023-1.004-0.051c10.865,3.283,19.888,7.279,26.164,10.434
	C290.59,162.801,284.677,158.495,277.746,158.495z M197.716,376.88l-2.41-5.883l-1.604,6.352c-1.531,0.121-2.976,0.172-4.309,0.178
	l-1.441-3.517l-1.327,3.464c-3.517-0.152-5.733-0.571-5.733-0.571s1.905-2.747,5.41-6.203h-22.835v20.211h29.708
	c0.98-3.186,3.053-8.785,6.828-14.456C199.234,376.609,198.464,376.765,197.716,376.88z M170.141,132.594
	c5.034-8.148,11.262-16.491,18.932-24.161c29.459-29.459,68.866-37.814,68.866-37.814c0,0-1.338,6.291-4.813,15.712l-8.318-2.581
	l-2.257,2.257l7.666,7.666c-1.483,3.499-3.209,7.244-5.215,11.139l-16.222-5.034l-2.257,2.257l12.618,12.618
	c27.453-5.294,50.785-1.691,50.785-1.691s-3.411,5.452-9.901,13.114l-9.824-3.926l4.578,9.827c-0.658,0.706-1.338,1.423-2.037,2.147
	h33.001c9.056,0,16.398-7.342,16.398-16.398c0-9.057-7.342-16.398-16.398-16.398h-0.026c-10.259,0-18.575-8.317-18.574-18.576
	v-0.342c0-5.493-4.452-9.946-9.945-9.946h-0.611c-6.877,0-12.363-5.486-12.363-12.253l0-0.379c0-6.976,5.656-12.632,12.632-12.632
	h24.3c7.724,0,13.986-6.262,13.986-13.986s6.262-13.986,13.986-13.986h31.528c7.724,0,13.986,6.262,13.986,13.986
	s6.262,13.986,13.986,13.986h23.965c6.976,0,12.632,5.656,12.632,12.632s-5.655,12.632-12.632,12.632h-10.221
	c-9.056,0-16.398,7.342-16.398,16.398s7.342,16.398,16.398,16.398h60.065c7.569,0,13.705,6.136,13.705,13.705
	s-6.136,13.705-13.705,13.705h-7.116c-7.131,0-12.912,5.781-12.912,12.912v2.445c0,5.781-4.686,10.467-10.467,10.467h-0.769
	c-8.452,0-15.285,6.414-15.964,14.574h2.434c2.069,0,3.924,1.549,4.032,3.616c0.115,2.204-1.637,4.027-3.816,4.027h-1.635
	c2.35,6.18,8.312,10.58,15.316,10.58h42.115c-0.002-0.137-0.013-0.271-0.009-0.41c0.144-4.789,4.322-8.481,9.113-8.481h25.616
	c2.081,0,3.767-1.687,3.767-3.767c0-2.08-1.686-3.767-3.767-3.767H460.81c-4.922,0-8.895-4.064-8.746-9.019
	c0.144-4.789,4.322-8.481,9.113-8.481h65.956c3.158,0,5.719-2.561,5.719-5.719c0-3.159-2.56-5.719-5.719-5.719H509.81
	c-4.922,0-8.895-4.064-8.746-9.019c0.144-4.789,4.322-8.481,9.113-8.481h32.328C488.786,50.837,399.156,0,297.638,0
	c-50.714,0-98.457,12.698-140.247,35.066c6.496,12.866,16.701,37.595,16.701,66.002
	C174.092,112.326,172.482,122.998,170.141,132.594z M290.31,390.911c0.118-1.161,0.167-2.428,0.167-3.813
	c0-9.057-7.342-16.398-16.398-16.398h-1.47c3.505,3.457,5.41,6.203,5.41,6.203s-2.216,0.419-5.733,0.571l-1.327-3.464l-1.441,3.517
	c-1.332-0.006-2.777-0.057-4.309-0.178l-1.604-6.352l-2.41,5.883c-0.716-0.111-1.454-0.262-2.188-0.407
	c3.767,5.665,5.836,11.255,6.816,14.438H290.31z M77.399,380.445v4.394v0.749l5.647-8.752l-5.647,2.365V380.445z M42.742,347.34
	c0.867-0.273,1.73-0.522,2.589-0.749v-1.498h-1.406L42.742,347.34z M203.772,370.7h-1.698l-0.87,4.034
	c0.855-1.173,1.785-2.338,2.797-3.475L203.772,370.7z M118.131,60.223c4.82,5.046,9.731,10.873,14.269,17.445
	c0.48-2.597,1.012-5.143,1.604-7.609h18.131v-3.191l-15.03-7.911c1.335-4.172,2.763-8.041,4.189-11.564h10.841v-3.191l-5.669-2.984
	C136.645,47.022,127.185,53.367,118.131,60.223z M45.811,319.346l-3.83,1.189c1.108,0.39,2.217,0.826,3.323,1.307l1.501-1.501
	L45.811,319.346z M35.346,350.277v-5.184H33.94l-4.463,8.479C31.312,352.402,33.269,351.287,35.346,350.277z M38.741,359.219
	l-1.828,8.479c1.074-1.474,2.243-2.937,3.514-4.366L38.741,359.219z M71.297,319.165h1.11v-1.406l-1.76-0.926
	C70.884,317.614,71.1,318.392,71.297,319.165z M77.399,370.343l1.791-2.717l-1.791,0.75V370.343z M110.562,345.093h-1.406v5.038
	c2.016,0.965,3.923,2.028,5.714,3.148L110.562,345.093z M106.074,359.219l-1.652,4.031c1.238,1.385,2.382,2.803,3.434,4.233
	L106.074,359.219z M132.858,369.656c0.369,0.488,0.564,0.769,0.564,0.769s-2.784,0.526-7.203,0.718l-1.667-4.352l-1.811,4.419
	c-1.674-0.007-3.49-0.071-5.413-0.224l-2.015-7.981l-3.028,7.391c-0.898-0.139-1.813-0.306-2.734-0.488
	c6.305,9.489,8.821,18.816,9.352,21.004h21.899V370.7h-3.182C135.919,370.7,134.31,370.32,132.858,369.656z M57.23,311.662
	l-7.655-1.398c1.288,0.953,2.568,1.988,3.826,3.111L57.23,311.662z M67.633,309.18h4.774v-1.406l-8.005-4.213
	C65.561,305.321,66.652,307.197,67.633,309.18z M99.112,319.346l-0.994,0.994l1.71,1.71c1.216-0.5,2.438-0.948,3.659-1.347
	L99.112,319.346z M129.814,203.609l-2.162-2.162c-1.05,0.875-2.124,1.751-3.232,2.628l6.008,19.359
	c-1.703,2.472-3.52,4.94-5.458,7.385l-14.926-14.926l-2.257,2.257l7.352,23.69c-1.899,1.886-3.839,3.682-5.806,5.397L94.016,231.92
	l-2.257,2.257l6.697,21.577c-2.553,1.795-5.108,3.459-7.646,5.014l-12.821-12.821l-2.257,2.257l5.034,16.222
	c-3.894,2.006-7.64,3.732-11.139,5.215l-7.666-7.666l-2.257,2.257l2.581,8.318c-9.421,3.474-15.712,4.813-15.712,4.813
	s5.133-24.195,21.526-48.84c-2.189,0.438-4.36,0.838-6.491,1.167l-6.874-16.778l-4.575,18.117
	c-4.367,0.346-8.489,0.491-12.289,0.508l-4.11-10.032l-3.785,9.879c-10.032-0.434-16.352-1.629-16.352-1.629
	s14.606-21.077,40.083-37.623c-2.867-0.513-5.662-1.099-8.371-1.75v-18.131h-3.191l-7.911,15.03
	c-4.172-1.336-8.041-2.764-11.564-4.189v-1.551C8.074,218.679,0,257.213,0,297.638c0,32.582,5.253,63.933,14.928,93.273h11.091
	c0.532-2.19,3.052-11.531,9.37-21.03c-0.964,0.193-1.921,0.369-2.859,0.514l-3.028-7.391l-2.015,7.981
	c-1.924,0.152-3.739,0.217-5.413,0.224l-1.811-4.419l-1.667,4.352c-4.419-0.191-7.203-0.718-7.203-0.718s6.436-9.288,17.662-16.577
	c-1.263-0.226-2.499-0.481-3.692-0.768v-7.987h-1.406l-3.485,6.621c-1.838-0.588-3.542-1.217-5.094-1.845v-4.776h-1.406
	l-1.787,3.395c-4.017-1.852-6.393-3.395-6.393-3.395s13.379-8.691,30.411-9.592l2.295-4.926l-9.195,5.432
	c-1.128-0.786-2.202-1.593-3.229-2.408l3.373-7.24l-7.229,3.937c-1.417-1.309-2.697-2.599-3.838-3.824l2.017-4.329l-4.328,1.729
	c-2.859-3.375-4.362-5.777-4.362-5.777s10.471-2.037,22.811,0.414l5.228-5.227l-0.994-0.994l-7.146,2.218
	c-0.884-1.715-1.644-3.366-2.297-4.907l3.377-3.377l-0.994-0.994l-3.664,1.137c-1.53-4.15-2.12-6.921-2.12-6.921
	c1.524,0.472,10.737,2.394,20.412,8.578c-0.166-0.744-0.32-1.483-0.456-2.212l7.291-3.261l-8.041-1.761
	c-0.213-1.918-0.335-3.731-0.395-5.404l4.36-1.95l-4.403-1.528c0.051-4.423,0.489-7.222,0.489-7.222s10.606,6.355,18.557,17.877
	c0.212-1.145,0.438-2.276,0.699-3.363h7.987v-1.406l-6.621-3.485c0.588-1.838,1.217-3.542,1.845-5.094h4.776v-1.406l-3.395-1.787
	c1.852-4.017,3.395-6.393,3.395-6.393s9.673,14.878,9.673,33.23c0,4.959-0.709,9.661-1.74,13.888
	c2.218-3.589,4.961-7.265,8.34-10.643c12.977-12.977,30.337-16.658,30.337-16.658c0,0-0.59,2.771-2.12,6.921l-3.664-1.137
	l-0.994,0.994l3.377,3.377c-0.653,1.541-1.414,3.191-2.297,4.907l-7.146-2.218l-0.994,0.994l5.559,5.559
	c12.093-2.332,22.372-0.745,22.372-0.745s-1.503,2.402-4.362,5.777l-4.328-1.729l2.017,4.329c-1.141,1.224-2.421,2.514-3.838,3.824
	l-7.229-3.937l3.373,7.24c-1.026,0.816-2.1,1.623-3.228,2.408l-9.195-5.432l2.302,4.942c16.88,0.991,30.092,9.576,30.092,9.576
	s-2.376,1.543-6.393,3.395l-1.787-3.395h-1.406v4.776c-1.552,0.628-3.256,1.257-5.094,1.845l-3.485-6.621h-1.406v7.987
	c-1.117,0.268-2.278,0.503-3.456,0.719c4.447,2.878,8.144,6.069,10.992,8.882c-0.344-1.091-0.532-2.252-0.532-3.457
	c0-6.338,5.138-11.476,11.476-11.476h3.182v-77.755h-17.004c-5.792,0-10.487-4.695-10.487-10.487
	c0-5.792,4.695-10.487,10.487-10.487h17.004v-31.371c-0.22,0.022-0.439,0.054-0.663,0.054
	C134.967,217.702,130.679,211.614,129.814,203.609z M578.835,199.901h-42.216c-2.08,0-3.767,1.687-3.767,3.767
	s1.687,3.767,3.767,3.767h17.525c4.922,0,8.895,4.064,8.746,9.019c-0.144,4.789-4.322,8.481-9.113,8.481h-71.8
	c-1.22,2.293-1.916,4.907-1.916,7.686c0,9.056,7.342,16.398,16.398,16.398h24.334c6.499,0,11.768,5.268,11.768,11.767
	c0,6.499,5.268,11.767,11.767,11.767h22.509c3.862,0,6.993,3.131,6.993,6.993c0,3.862-3.131,6.993-6.993,6.993h-3.462
	c-9.057,0-16.398,7.342-16.398,16.398c0,9.057,7.342,16.398,16.398,16.398h14.697c6.76,0,12.239,5.48,12.239,12.239
	s-5.48,12.239-12.239,12.239h-1.439c-1.686,0-3.256,0.479-4.597,1.296c0.948,0.803,1.6,1.934,1.724,3.24
	c0.284,2.982-2.053,5.491-4.976,5.491h-1.014V370.7h-16.04c-9.056,0-16.398,7.342-16.398,16.398c0,1.315,0.171,2.587,0.464,3.813
	h44.554c9.675-29.341,14.928-60.692,14.928-93.273C595.276,263.398,589.476,230.517,578.835,199.901z M84.794,179.35
	c1.967-0.62,3.927-1.186,5.876-1.701v-3.401h-3.191L84.794,179.35z M113.232,385.612l-0.994-0.994l-3.377,3.377
	c-1.541-0.653-3.191-1.414-4.907-2.297l2.218-7.146l-0.994-0.994l-5.648,5.648c-1.118-0.685-2.244-1.418-3.368-2.209l2.95-9.505
	l-0.994-0.994l-5.408,5.408c1.529,5.369,2.177,10.565,2.382,15.005h22.023c-1.212-0.339-2.943-0.869-5.019-1.635L113.232,385.612z
	 M71.559,225.564c2.438-3.345,5.091-6.667,7.976-9.91l-3.826-9.338L71.559,225.564z M91.877,85.069l16.551-7.402l-9.067-1.986
	c-4.039,3.611-7.989,7.32-11.825,11.144c1.779,1.025,3.573,2.114,5.376,3.266C92.536,88.401,92.186,86.724,91.877,85.069z
	 M68.004,186.016v-11.768h-3.191l-10.131,19.249C58.847,190.84,63.289,188.309,68.004,186.016z M261.353,390.911l0.596-1.92
	l-0.791-0.791l-2.688,2.688c-1.227-0.52-2.54-1.125-3.905-1.828l1.765-5.688l-0.791-0.791l-4.495,4.495
	c-0.89-0.545-1.786-1.129-2.681-1.758l2.348-7.565l-0.791-0.791l-4.304,4.304c0.962,3.377,1.486,6.669,1.744,9.645H261.353z
	 M77.989,102.033l-2.257-2.257l-0.579,0.18c-3.904,4.391-7.691,8.887-11.333,13.505c0.764,0.138,1.532,0.285,2.303,0.438
	L77.989,102.033z M75.156,141.291l-20.873,12.332c-2.561-1.784-4.999-3.616-7.329-5.467l7.656-16.435l-6.396,3.483
	c-5.076,7.778-9.795,15.808-14.139,24.067c10.397-3.341,22.652-6.096,35.872-6.796L75.156,141.291z M88.709,365.787
	c0.623,1.207,1.215,2.453,1.761,3.743l1.582-5.098l-0.994-0.994L88.709,365.787z M501.86,476.631
	c-61.43,3.645-127.119,33.354-191.731,62.159c-12.638,5.634-25.234,11.233-37.75,16.596c-3.816,1.635-7.625,3.248-11.425,4.834
	c-0.464,0.194-0.929,0.389-1.393,0.581c-1.555,0.647-3.109,1.287-4.661,1.923c-3.957,1.623-7.903,3.211-11.839,4.761
	c-1.583,0.623-3.163,1.239-4.742,1.849c-2.951,1.14-5.896,2.256-8.832,3.345l1.609,15.121c21.396,4.887,43.667,7.475,66.543,7.475
	c23.421,0,46.207-2.714,68.068-7.829l12.401-41.696l49.978-30.076l67.769-9.088l8.229,5.435
	c11.131-10.721,21.425-22.302,30.784-34.634C524.026,476.169,513.013,475.969,501.86,476.631z"></path>
</svg>